<?xml version="1.0" encoding="utf-8"?>
<!-- Generator: Adobe Illustrator 24.0.2, SVG Export Plug-In . SVG Version: 6.00 Build 0)  -->
<svg version="1.1" id="Capa_1" xmlns="http://www.w3.org/2000/svg" xmlns:xlink="http://www.w3.org/1999/xlink" x="0px" y="0px"
	 viewBox="0 0 1200 800" style="enable-background:new 0 0 1200 800;" xml:space="preserve">
<style type="text/css">
	.st0{opacity:0.89;fill:#EAE9E8;}
	.st1{fill:#F46F44;}
	.st2{fill:#EDBE85;}
	.st3{fill:#FAAD18;}
	.st4{fill:#BCBCBC;}
	.st5{fill:#19334B;}
	.st6{fill:#A0A0A0;}
	.st7{fill:#34495E;}
	.st8{fill:#C4C4C4;}
	.st9{fill:#DDA936;}
	.st10{fill:#D8D8D8;}
	.st11{fill:#3A3A3A;}
	.st12{fill:#221F1F;}
	.st13{opacity:0.2;fill:#221F1F;}
	.st14{fill:#898989;}
	.st15{fill:#FFD15F;}
	.st16{fill:#DCB99D;}
	.st17{fill:#EED3B7;}
	.st18{fill:#72583B;}
	.st19{fill:#F4F4F4;}
	.st20{fill:#3C444F;}
	.st21{fill:#D1AD93;}
	.st22{fill:#DBDCDD;}
	.st23{fill:#303030;}
	.st24{fill:#252926;}
	.st25{fill:#87CDCD;}
	.st26{fill:#1CA69F;}
	.st27{fill:#F4BB2D;}
	.st28{fill:#2F4358;}
	.st29{fill:#DDDDDD;}
	.st30{fill:#B3B2B3;}
	.st31{fill:#313D4D;}
	.st32{fill:#F59326;}
	.st33{fill:#CCCBCB;}
	.st34{fill:#5B6375;}
	.st35{fill:#73BCC4;}
	.st36{fill:#5E9BA3;}
	.st37{fill:#74C4E5;}
	.st38{opacity:0.8;fill:#2F363E;}
	.st39{fill:#F3715B;}
	.st40{fill:#FFFFFF;}
	.st41{fill:#FFD9B0;}
	.st42{fill:#E9F4F2;}
	.st43{fill:none;stroke:#4F4F4F;stroke-width:3;stroke-miterlimit:10;stroke-dasharray:11.9646,11.9646;}
	.st44{fill:#FFFFFF;stroke:#F46F44;stroke-miterlimit:10;}
</style>
<path class="st0" d="M127.5,517.31c0,113.32,141.34,205.19,315.7,205.19s315.7-91.87,315.7-205.19c0-2.8-0.11-5.59-0.28-8.37
	c36.43,14.59,78.41,22.92,123.11,22.92c139.6,0,252.77-81.12,252.77-181.18S1021.33,169.5,881.73,169.5
	c-49.36,0-95.41,10.15-134.33,27.69c-57.32-17.44-127.23-27.69-202.69-27.69c-194.54,0-352.25,68.09-352.25,152.08
	c0,18.95,8.05,37.09,22.72,53.82C160.88,412.25,127.5,462.24,127.5,517.31z"/>
<rect x="429.93" y="344.79" transform="matrix(0.0809 0.9967 -0.9967 0.0809 878.9338 -259.2561)" class="st1" width="300.22" height="4.29"/>
<rect x="431.65" y="538.54" transform="matrix(-0.6653 0.7465 -0.7465 -0.6653 1275.2959 509.8088)" class="st1" width="183.47" height="4.42"/>
<rect x="287.93" y="406.79" transform="matrix(0.9509 0.3096 -0.3096 0.9509 148.1032 -115.5097)" class="st1" width="300.22" height="4.29"/>
<rect x="549.08" y="541.89" transform="matrix(0.7465 0.6653 -0.6653 0.7465 534.7701 -316.1065)" class="st1" width="266.39" height="3.89"/>
<rect x="576.78" y="406.34" transform="matrix(-0.9166 0.3999 -0.3999 -0.9166 1525.1307 499.1714)" class="st1" width="267.41" height="4.7"/>
<circle class="st40" cx="588.25" cy="456.26" r="16.32"/>
<g>
	<path class="st2" d="M590.67,598.67v-5.41c0,0-8.15-0.78-13.49-10.67l-24.7-53.51c0,0-1.46-2.98-1.36-4.74c0,0-0.2-5.84,4.99-8.42
		c0,0,5.16-1.74,8.56,2.23c0,0,2.58,1.92,4.93,7.39l5.54,10.63l2.62,4.43l0.02-43.64l0.15-41.39c0,0,1.39-7,5.75-8.5
		c0,0,5.02-1.85,7.86,1.27c0,0,3.77,2.49,3.89,7.69v26.26l-0.38,49.8c0,0,0.29-18.22,1.39-21.08c0,0,2.93-7.38,8.88-6.68
		c0,0,6.12-0.29,8.61,5.9c0,0,2.35,2.9,1.17,12.35l0.1,9.69c0,0-0.2-16.14,0.64-17.47c0.83-1.33,1.96-5.73,8.37-5.96
		c0,0,5.63,0.23,7.73,5.84c0,0,0.83,0.29,0.83,5.44l0.24,10.64c0,0-0.34-10.7,0.34-11.57c0,0,2.2-5.5,6.12-5.5
		c0,0,4.5-1.45,7.05,2.72c0,0,2.5,1.62,2.25,8.21l-1.15,31.03c0,0-1.78,26.2-12.36,37.36l-0.07,5.65H590.67z"/>
	<path class="st41" d="M557.88,519.58c0,0-3.69-1.69-4.93,1.9c0,0-1.29,1.82,0.26,4.64l4.89,10.22c0,0,1.63,0.84,3.69-0.34
		c0,0,2.66-1.77,2.57-4.47c0,0,0.47-1.69-1.59-5.23C562.77,526.29,559.38,520.34,557.88,519.58z"/>
	<ellipse class="st41" cx="586.58" cy="456.14" rx="6.75" ry="7.14"/>
	<polygon class="st7" points="587.46,663.86 637.78,663.86 637.91,620.24 614.51,620.22 587.6,620.2 587.51,620.2 	"/>
	<polygon class="st5" points="587.48,663.86 614.39,663.86 614.51,620.23 587.6,620.22 	"/>
	<path class="st42" d="M628.42,621.52l-31.43-0.03c-6.89-0.01-12.51-5.65-12.51-12.53v0c0.01-6.89,5.65-12.51,12.53-12.51
		l31.43,0.03c6.89,0.01,12.51,5.65,12.51,12.53l0,0C640.95,615.9,635.31,621.53,628.42,621.52z"/>
</g>
<g>
	<circle class="st43" cx="574.46" cy="420.75" r="262.77"/>
</g>
<circle class="st1" cx="562.15" cy="165.02" r="68.95"/>
<circle class="st1" cx="821.05" cy="346.53" r="68.95"/>
<circle class="st1" cx="739.44" cy="623.73" r="68.95"/>
<circle class="st1" cx="422.85" cy="634.98" r="68.95"/>
<circle class="st1" cx="322.95" cy="345.12" r="68.95"/>
<g>
	<path class="st40" d="M784.16,375.95c11.58-11.47,23.17-22.92,34.71-34.42c1.1-1.1,1.7-1.25,2.83-0.03
		c2.42,2.63,4.99,5.13,7.57,7.6c0.84,0.81,0.82,1.26,0,2.07c-11.41,11.25-22.79,22.53-34.15,33.84c-0.76,0.76-1.33,0.88-2.29,0.47
		c-4.23-1.79-6.91-5-8.67-9.12C784.16,376.23,784.16,376.09,784.16,375.95z"/>
	<path class="st40" d="M877.02,342.11c-4.69,5.26-9.85,10.05-14.85,15c-1.43,1.42-3.37,1.18-4.98-0.27c-2.78-2.5-2.77-2.5-0.19-5.09
		c4.99-5.01,9.99-10.01,14.93-15.06c0.85-0.87,1.37-1.06,2.22-0.06c0.96,1.14,2.18,2.05,2.87,3.42
		C877.02,340.73,877.02,341.42,877.02,342.11z"/>
	<path class="st40" d="M868.52,334.75c-4.97,5.12-10.01,10.33-15.18,15.67c-0.63-2.5-1.48-4.73-3.9-5.79
		c-2.74-1.19-5.5-0.85-8.2,0.22c-2.32,0.92-4.45,2.15-6.16,3.99c-0.72,0.78-1.13,0.87-1.93,0.06c-3.73-3.75-7.52-7.45-11.33-11.13
		c-0.74-0.71-0.89-1.15-0.05-1.93c1.87-1.72,3.66-3.53,5.44-5.35c5.39-5.5,5.4-12.11,0.08-17.7c-4.24-4.46-9.62-6.12-15.55-6.47
		c-0.41-0.02-0.82-0.02-1.24-0.04c-1.13-0.03-2.33-0.05-2.39-1.59c-0.06-1.49,1.03-1.99,2.27-2.17c7.04-1.07,13.94-0.49,20.7,1.82
		c9.68,3.3,17.41,9.44,24.39,16.69c0.61,0.63,0.75,1.42,1.01,2.2C858.54,329.29,862.33,333.53,868.52,334.75z"/>
</g>
<g>
	<path class="st40" d="M723.96,620.79c3.49-4.97,7.36-9.63,11.56-14.01c4.87-5.06,10.18-9.58,16.26-13.14
		c7.14-4.18,14.82-6.53,23.11-6.93c2.45-0.12,4.89-0.1,7.33-0.14c0.82-0.01,1.02,0.26,1.06,1.05c0.7,14.7-3.62,27.69-13.08,38.98
		c-6.26,7.47-13.54,13.8-21.43,19.46c-0.04-0.1-0.1-0.19-0.11-0.29c-0.19-3.04-2.72-3.56-4.81-2.92c-2.32,0.71-4.3,1.97-6.08,3.54
		c-2.91,2.57-5.37,5.43-5.31,9.66c-3.34-1.93-6.4-4.22-9.21-6.86c2.5-2.65,5.02-5.28,7.51-7.94c1.93-2.06,3.77-4.2,5.34-6.55
		c0.26-0.39,0.82-0.93,0.35-1.37c-0.44-0.42-0.94,0.14-1.34,0.41c-3.64,2.45-6.79,5.48-9.97,8.48c-1.52,1.44-2.87,3.06-4.53,4.35
		c-2.74-2.89-5.14-6.03-7.02-9.56c1.01-0.14,2.05-0.01,3.03-0.41c4.18-1.72,7-4.87,9.14-8.72c0.64-1.15,1.07-2.39,1.12-3.72
		c0.07-1.68-0.64-2.65-2.25-3.12C724.4,620.98,724.18,620.88,723.96,620.79z M781,593.05c0-0.62,0-1.24,0-1.86
		c0-2.3,0-2.31-2.27-2.34c-4.39-0.05-8.74,0.32-12.97,1.6c-0.62,0.19-0.82,0.33-0.38,0.93c3.65,5.03,7.98,9.39,13.02,13.03
		c0.61,0.44,0.81,0.36,1.02-0.35C780.48,600.47,780.9,596.78,781,593.05z M747.09,611.79c-0.04,6,4.76,10.89,10.75,10.95
		c5.99,0.06,10.95-4.71,11-10.58c0.06-6.27-4.65-11.15-10.79-11.21C752.02,600.9,747.13,605.72,747.09,611.79z"/>
	<path class="st40" d="M732.46,656.07c-0.06-4.23,2.4-7.09,5.31-9.66c1.78-1.57,3.76-2.83,6.08-3.54c2.09-0.64,4.62-0.12,4.81,2.92
		c0.01,0.1,0.07,0.19,0.11,0.29c-2.15,8.37-7.56,14.79-12.75,21.33c-1.48,1.86-3.15,3.56-4.91,5.15c-0.56,0.5-1.18,0.95-1.83,1.33
		c-0.45,0.26-1.04,0.62-1.51,0.12c-0.42-0.45-0.11-1,0.15-1.43c0.4-0.68,0.87-1.32,1.32-1.97c2.02-2.89,3.46-6.02,3.77-9.58
		C733.14,659.34,733.21,657.66,732.46,656.07z"/>
	<path class="st40" d="M723.96,620.79c0.22,0.09,0.44,0.19,0.67,0.26c1.61,0.47,2.32,1.44,2.25,3.12c-0.05,1.33-0.48,2.56-1.12,3.72
		c-2.14,3.85-4.96,7-9.14,8.72c-0.98,0.4-2.02,0.28-3.03,0.41c-3.09-1.03-6.12-0.59-9.11,0.39c-2.21,0.73-4.2,1.88-6.07,3.27
		c-0.5,0.37-1.01,0.72-1.56,1c-0.42,0.22-0.92,0.46-1.35,0.05c-0.45-0.43-0.13-0.91,0.08-1.33c0.55-1.13,1.38-2.05,2.26-2.93
		c4.69-4.7,9.96-8.68,15.55-12.24c2.39-1.52,4.87-2.85,7.54-3.81C721.92,621.07,722.95,621.01,723.96,620.79z"/>
	<path class="st44" d="M720.61,646.58c1.66-1.29,3.01-2.91,4.53-4.35c3.18-3,6.33-6.02,9.97-8.48c0.4-0.27,0.9-0.83,1.34-0.41
		c0.46,0.44-0.09,0.98-0.35,1.37c-1.57,2.35-3.41,4.49-5.34,6.55c-2.49,2.66-5.01,5.3-7.51,7.94c-1.74,1.3-3.16,2.94-4.8,4.35
		c-1.93,1.66-3.83,3.36-5.93,4.81c-0.47,0.33-1.12,1.03-1.6,0.56c-0.49-0.48,0.19-1.14,0.52-1.62c2.47-3.54,5.45-6.64,8.4-9.78
		C720.12,647.23,720.48,647,720.61,646.58z"/>
	<path class="st40" d="M718.64,661.08c-0.61,0.01-0.63-0.31-0.47-0.62c0.35-0.66,0.69-1.36,1.16-1.94c1.51-1.87,3.07-3.69,4.61-5.54
		c0.44-0.52,0.79-0.69,1.43-0.17c1.83,1.5,1.86,1.46,0.12,3.03c-1.81,1.64-3.65,3.23-5.68,4.58
		C719.4,660.7,718.96,660.9,718.64,661.08z"/>
	<path class="st40" d="M717.32,644.99c0.06,0.4-0.15,0.56-0.32,0.72c-2.21,1.97-4.38,3.98-6.89,5.58c-0.17,0.11-0.35,0.21-0.54,0.29
		c-0.25,0.11-0.55,0.23-0.76-0.03c-0.18-0.21,0-0.47,0.1-0.68c0.52-1.1,1.28-2.04,2.04-2.97c1.31-1.59,2.69-3.13,4.02-4.7
		c0.41-0.48,0.7-0.42,1.04,0.07C716.44,643.9,716.92,644.48,717.32,644.99z"/>
	<path class="st40" d="M757.91,620.75c-4.91,0-8.9-3.97-8.89-8.85c0.01-5.03,3.98-9,8.99-8.99c4.95,0.01,8.93,3.98,8.95,8.93
		C766.98,616.81,762.97,620.75,757.91,620.75z"/>
</g>
<g>
	<path class="st40" d="M285.71,365.72c0.13,0.13,0.15-0.03,0.17-0.08c0.28-0.61,0.72-1.09,1.18-1.56c3.53-3.6,7.05-7.2,10.59-10.8
		c0.72-0.74,1.64-0.99,2.62-0.67c0.96,0.31,1.28,1.16,1.34,2.07c0.07,1.1,0.04,2.21,0.05,3.32c0.01,1.05,0,2.09,0,3.14
		c0,0.75-0.11,0.66,0.68,0.66c7.18,0,14.36,0,21.54,0c4.4,0,8.8,0.02,13.2-0.01c2.49-0.02,4.91-0.44,7.1-1.72
		c2.05-1.2,3.44-2.91,3.92-5.28c0.04-0.2,0.05-0.4,0.05-0.6c0-1.92,0.02-3.84-0.01-5.76c-0.01-0.45,0.13-0.76,0.44-1.07
		c2.3-2.36,4.66-4.65,7-6.96c0.59-0.58,1.12-1.21,1.71-1.79c0.18,0.13,0.15,0.21,0.15,0.28c0,5.54,0.12,11.08-0.03,16.62
		c-0.17,6.17-3.15,10.64-8.74,13.31c-2.47,1.18-5.12,1.75-7.83,2.06c-1.87,0.21-3.74,0.23-5.61,0.23c-10.97,0-21.94,0-32.91,0
		c-0.77,0-0.65-0.06-0.65,0.65c0,1.92,0,3.84,0,5.76c0,0.55-0.05,1.09-0.24,1.61c-0.21,0.57-0.62,0.96-1.14,1.24
		c0,0,0,0.02,0.01,0.03c0.01,0.01,0.02,0.02,0.04,0.03c-0.53,0-1.06,0-1.59,0c0.02-0.02,0.04-0.03,0.06-0.05
		c0,0-0.01-0.03-0.02-0.04c-0.43-0.22-0.85-0.41-1.2-0.77c-3.48-3.57-6.97-7.13-10.46-10.69c-0.49-0.5-0.97-1.02-1.25-1.68
		c-0.02-0.05-0.04-0.18-0.15-0.07C285.71,366.66,285.71,366.19,285.71,365.72z"/>
	<path class="st40" d="M307.99,331.61c-1.75,0.12-3.48,0.32-5.13,0.95c-2.56,0.98-4.49,2.6-5.39,5.28
		c-0.17,0.49-0.25,0.99-0.24,1.52c0.01,1.94,0,3.87,0,5.81c0,0.22,0.01,0.42-0.17,0.61c-2.93,3.07-6.01,5.99-9.01,8.97
		c-0.13-0.04-0.11-0.13-0.11-0.2c0-5.57-0.13-11.15,0.04-16.71c0.19-6.21,3.25-10.67,8.9-13.3c2.66-1.24,5.5-1.79,8.41-2.05
		c1.79-0.16,3.58-0.15,5.38-0.15c10.8,0,21.6,0,32.4,0c0.77,0,0.65,0.06,0.65-0.64c0-1.92,0-3.84,0-5.76c0-0.56,0.05-1.12,0.26-1.65
		c0.22-0.55,0.62-0.92,1.13-1.2c0,0,0-0.02-0.01-0.03c-0.01-0.01-0.02-0.02-0.03-0.03c0.53,0,1.06,0,1.59,0
		c-0.01,0.01-0.03,0.02-0.04,0.02c-0.01,0.01-0.02,0.03-0.02,0.03c0.33,0.28,0.77,0.35,1.09,0.68c3.53,3.63,7.09,7.25,10.63,10.87
		c0.42,0.42,0.81,0.87,1.07,1.41c0.03,0.06,0.03,0.25,0.19,0.1c0,0.5,0,1,0,1.5c-0.16-0.08-0.15,0.08-0.18,0.15
		c-0.31,0.68-0.76,1.25-1.27,1.78c-3.47,3.54-6.94,7.09-10.42,10.62c-0.71,0.72-1.62,0.96-2.58,0.65c-0.92-0.29-1.22-1.1-1.35-1.96
		c-0.05-0.34-0.05-0.68-0.05-1.03c0-1.9,0-3.81,0-5.71c0-0.17,0.05-0.34-0.05-0.5c-0.19-0.24-0.46-0.16-0.7-0.16
		c-7.22,0-14.44,0-21.66,0c-4.21,0-8.42,0-12.63,0C308.45,331.45,308.18,331.37,307.99,331.61z"/>
	<path class="st40" d="M307.99,331.61c0.19-0.24,0.46-0.16,0.7-0.16c4.21,0,8.42,0,12.63,0c7.22,0,14.44,0,21.66,0
		c0.24,0,0.51-0.08,0.7,0.16c-0.16,0-0.31,0.01-0.47,0.01c-11.61,0-23.22,0-34.84,0C308.24,331.63,308.12,331.62,307.99,331.61z"/>
</g>
<g>
	<path class="st40" d="M535.49,129c12.5,0,25,0,37.5,0c0,4.2,0,8.39,0,12.59c0,2.78,1.1,3.89,3.89,3.9
		c4.04,0.01,8.07,0.05,12.11-0.03c1.17-0.02,1.51,0.23,1.5,1.47c-0.05,17.49-0.04,34.98-0.01,52.47c0,1-0.23,1.75-1.01,2.34
		c-18,0-35.99,0-53.99,0c-0.77-0.6-1.01-1.35-1.01-2.35c0.03-22.68,0.03-45.37,0-68.05C534.48,130.35,534.71,129.6,535.49,129z
		 M562.64,178.52c-5.44,0-10.88,0.07-16.32-0.04c-1.55-0.03-1.44,0.74-1.43,1.76c0,1.02-0.12,1.78,1.43,1.77
		c10.77-0.08,21.54-0.08,32.31,0c1.55,0.01,1.43-0.74,1.43-1.77c0-1.02,0.13-1.8-1.43-1.77
		C573.31,178.58,567.98,178.52,562.64,178.52z M562.49,162.07c5.33,0,10.65-0.04,15.98,0.03c1.23,0.02,1.7-0.26,1.62-1.57
		c-0.07-1.11,0.03-1.83-1.54-1.81c-10.7,0.08-21.41,0.07-32.11,0.01c-1.39-0.01-1.51,0.5-1.54,1.65c-0.03,1.27,0.2,1.77,1.63,1.74
		C551.83,162.02,557.16,162.07,562.49,162.07z M562.5,171.99c5.33,0,10.65-0.04,15.98,0.03c1.25,0.02,1.67-0.28,1.61-1.58
		c-0.06-1.13,0-1.82-1.56-1.81c-10.7,0.08-21.41,0.07-32.11,0c-1.42-0.01-1.54,0.54-1.52,1.68c0.03,1.06-0.04,1.75,1.46,1.72
		C551.74,171.92,557.12,171.99,562.5,171.99z M562.48,191.83c5.38,0,10.77-0.05,16.15,0.04c1.33,0.02,1.53-0.49,1.42-1.59
		c-0.09-0.9,0.32-1.83-1.34-1.82c-10.82,0.08-21.64,0.08-32.46,0c-1.46-0.01-1.34,0.7-1.35,1.66c-0.01,1.02-0.12,1.79,1.43,1.76
		C551.71,191.76,557.1,191.83,562.48,191.83z M555.37,148.78c-3.06,0-6.13,0.08-9.19-0.04c-1.55-0.06-1.28,0.86-1.27,1.74
		c0.02,0.84-0.36,1.8,1.22,1.78c6.23-0.08,12.46-0.08,18.69,0c1.49,0.02,1.2-0.87,1.14-1.66c-0.06-0.75,0.58-1.9-1.1-1.85
		C561.71,148.84,558.54,148.78,555.37,148.78z M555.69,138.91c-3.12,0-6.25,0.1-9.37-0.04c-1.58-0.07-1.41,0.77-1.41,1.77
		c-0.01,0.98-0.07,1.67,1.36,1.64c6.14-0.09,12.28-0.09,18.42,0c1.29,0.02,1.42-0.52,1.29-1.5c-0.11-0.83,0.51-1.98-1.24-1.9
		C561.73,139,558.71,138.91,555.69,138.91z"/>
	<path class="st40" d="M576.52,130.26c4.22,4.03,8.18,7.79,12.16,11.59c-0.61,0.62-1.24,0.35-1.78,0.36
		c-3.12,0.03-6.25-0.01-9.37,0.03c-0.74,0.01-1.03-0.14-1.02-0.96C576.54,137.73,576.52,134.18,576.52,130.26z"/>
</g>
<g>
	<rect x="382" y="633.17" class="st40" width="14.39" height="43.83"/>
	<rect x="423.86" y="616.17" class="st40" width="14.39" height="60.83"/>
	<rect x="402.93" y="590" class="st40" width="14.39" height="87"/>
	<rect x="446.11" y="599.81" class="st40" width="14.39" height="77.19"/>
</g>
</svg>
