<svg id="Capa_1" data-name="Capa 1" xmlns="http://www.w3.org/2000/svg" xmlns:xlink="http://www.w3.org/1999/xlink" viewBox="0 0 800 600"><defs><style>.cls-1{fill:#e7e7e7;}.cls-2{fill:#49ba99;}.cls-3{fill:#1a2e35;}.cls-4{fill:url(#Degradado_sin_nombre_25);}.cls-31,.cls-5{fill:#606060;}.cls-12,.cls-36,.cls-6,.cls-7{fill:#fff;}.cls-7{font-size:6.56px;}.cls-12,.cls-7{font-family:Montserrat-Regular, Montserrat Regular;}.cls-8{letter-spacing:0em;}.cls-9{letter-spacing:-0.01em;}.cls-10{letter-spacing:-0.01em;}.cls-11{opacity:0.57;}.cls-12{font-size:5.99px;}.cls-13{letter-spacing:-0.01em;}.cls-14{letter-spacing:0em;}.cls-15{letter-spacing:-0.01em;}.cls-16{letter-spacing:0em;}.cls-17{letter-spacing:-0.01em;}.cls-18{letter-spacing:-0.01em;}.cls-19{opacity:0.52;}.cls-20{letter-spacing:-0.01em;}.cls-21{letter-spacing:0em;}.cls-22{letter-spacing:0.03em;}.cls-23{letter-spacing:-0.08em;}.cls-24{letter-spacing:0em;}.cls-25{letter-spacing:0.01em;}.cls-26{letter-spacing:0em;}.cls-27{letter-spacing:0.01em;}.cls-28{letter-spacing:-0.03em;}.cls-29{letter-spacing:0em;}.cls-30{letter-spacing:0.02em;}.cls-31{opacity:0.29;}.cls-32{fill:#ffba99;}.cls-33{fill:#c1740e;}.cls-34{fill:#5f4456;}.cls-35{fill:#cf6940;}.cls-36{font-size:18.25px;font-family:MyriadPro-Regular, Myriad Pro;letter-spacing:0em;}.cls-37{letter-spacing:-0.01em;}.cls-38{letter-spacing:0em;}.cls-39{letter-spacing:0em;}</style><linearGradient id="Degradado_sin_nombre_25" x1="356.61" y1="315.23" x2="546.84" y2="315.23" gradientUnits="userSpaceOnUse"><stop offset="0.04" stop-color="#f6a117"/><stop offset="1" stop-color="#ffdc7f"/></linearGradient></defs><title>crear cuenta</title><path class="cls-1" d="M147.56,189.34l162.91-.51-41.55-8.48s1.69-46.64-18.66-37.31a36.26,36.26,0,0,0-21.2,29.68s-7.64-18.66-18.66-11.87-16.12,18.65-16.12,18.65-4-13.42-11-14.18c-6-.65-17.54,12.12-23.57,19.3Z"/><path class="cls-1" d="M595.61,265,730,264.64l-34.28-6.31s1.4-34.65-15.39-27.72-17.49,22-17.49,22-6.3-13.86-15.4-8.82a34.76,34.76,0,0,0-13.29,13.86s-3.26-10-9.09-10.54c-5-.48-14.47,9-19.44,14.34Z"/><path class="cls-2" d="M543.37,459.6c-2.51-4.9,3.38-10.15,8.8-11.11s11.57-.23,15.88-3.65c5.77-4.57,5.48-14.53,11.86-18.17,5.13-2.93,11.92-.14,17.35-2.45,6.75-2.87,8.65-12.28,15.27-15.43,5.28-2.52,12.18.33,14.87,5.51s1.46,11.9-2.28,16.4c-2.92,3.52-7.24,6-9.06,10.18-2.84,6.57,1.65,14.54-1,21.2-4.83,12.32-27.65,8.61-31.61,21.23-.88,2.8-.51,5.83-.74,8.77-.69,8.73-6.84,16.36-14.44,20.71s-16.5,5.85-25.24,6.46c-3.57.25-7.33.33-10.51-1.31-3-1.54-5.08-4.41-6.7-7.36-10.5-19-14.82-43.84,17.52-51"/><path class="cls-2" d="M375.09,449.49c5.64-3.73,2.5-12.89-2.72-17.19s-12.23-7.21-14.79-13.47c-3.42-8.36,2.9-18.83-1.74-26.58-3.72-6.22-12.67-7.32-17.09-13.06-5.48-7.14-1.85-18.34-7-25.71-4.13-5.87-13.23-7-19.23-3.05s-8.73,11.85-7.44,18.91c1,5.52,4.15,10.76,3.56,16.35-.92,8.74-10.51,14.56-11.73,23.26-2.25,16.08,24.39,25.86,21,41.74-.74,3.53-3,6.55-4.49,9.83-4.52,9.75-2.53,21.61,3,30.84s14.12,16.2,23.09,22.12c3.67,2.41,7.65,4.76,12,4.92,4.13.16,8.09-1.65,11.6-3.83,22.69-14,42.26-38,12-65.08"/><rect class="cls-3" x="346.94" y="110.98" width="209.58" height="410.95" rx="21.15"/><rect class="cls-4" x="356.61" y="123.06" width="190.23" height="384.34" rx="14.81"/><path class="cls-5" d="M508.65,123.06H496.28a6.87,6.87,0,0,0-6.87,6.88v4.91a6.88,6.88,0,0,1-6.88,6.87H427.36a6.88,6.88,0,0,1-6.87-6.87v-4.91a6.88,6.88,0,0,0-6.87-6.88H378.49v-3.52H508.65Z"/><path class="cls-6" d="M457.37,182.15a3.33,3.33,0,1,0-3.11,0,5.19,5.19,0,0,0-3.63,4.94v2.61H461v-2.61A5.19,5.19,0,0,0,457.37,182.15Z"/><rect class="cls-6" x="411.16" y="433.26" width="79.16" height="17.77" rx="1.43"/><text class="cls-7" transform="translate(437.08 444.08)"><tspan class="cls-8">R</tspan><tspan x="3.56" y="0">e</tspan><tspan class="cls-9" x="6.84" y="0">g</tspan><tspan x="10.47" y="0">is</tspan><tspan class="cls-10" x="14.6" y="0">t</tspan><tspan x="16.74" y="0">er</tspan></text><g class="cls-11"><text class="cls-12" transform="translate(383.42 226.16)">Email <tspan class="cls-13" x="14.92" y="0">A</tspan><tspan class="cls-14" x="18.52" y="0">dd</tspan><tspan class="cls-15" x="25.28" y="0">r</tspan><tspan class="cls-16" x="27.18" y="0">ess</tspan></text></g><text class="cls-12" transform="translate(390.16 245.72)"><tspan class="cls-17">y</tspan><tspan class="cls-14" x="2.76" y="0">ou</tspan><tspan class="cls-15" x="9.36" y="0">r</tspan><tspan x="11.26" y="0">email@</tspan><tspan class="cls-18" x="29.38" y="0">g</tspan><tspan x="32.69" y="0">mai</tspan><tspan class="cls-15" x="41.98" y="0">l</tspan><tspan x="43.34" y="0">.c</tspan></text><rect class="cls-6" x="383.42" y="232.68" width="144.79" height="21.82" rx="2.76"/><g class="cls-19"><text class="cls-12" transform="translate(383.42 274.72)"><tspan class="cls-20">C</tspan><tspan class="cls-14" x="3.41" y="0">ou</tspan><tspan class="cls-21" x="10" y="0">n</tspan><tspan x="13.31" y="0">t</tspan><tspan class="cls-22" x="15.29" y="0">r</tspan><tspan class="cls-16" x="17.4" y="0">y</tspan></text></g><text class="cls-12" transform="translate(390.16 294.1)"><tspan class="cls-23">Y</tspan><tspan x="2.79" y="0">our </tspan><tspan class="cls-18" x="12.61" y="0">t</tspan><tspan class="cls-24" x="14.56" y="0">e</tspan><tspan class="cls-25" x="17.54" y="0">x</tspan><tspan class="cls-14" x="20.4" y="0">t</tspan></text><rect class="cls-6" x="383.42" y="281.43" width="144.79" height="21.82" rx="2.76"/><g class="cls-19"><text class="cls-12" transform="translate(383.42 326)"><tspan class="cls-26">C</tspan><tspan x="3.46" y="0">i</tspan><tspan class="cls-27" x="4.86" y="0">t</tspan><tspan x="6.9" y="0">y</tspan></text></g><text class="cls-12" transform="translate(390.16 345.37)"><tspan class="cls-23">Y</tspan><tspan x="2.79" y="0">our </tspan><tspan class="cls-26" x="12.61" y="0">C</tspan><tspan x="16.07" y="0">i</tspan><tspan class="cls-27" x="17.47" y="0">t</tspan><tspan class="cls-16" x="19.51" y="0">y</tspan></text><rect class="cls-6" x="383.42" y="332.7" width="144.79" height="21.82" rx="2.76"/><g class="cls-19"><text class="cls-12" transform="translate(383.42 377.52)"><tspan class="cls-28">P</tspan><tspan x="3.03" y="0">ass</tspan><tspan class="cls-17" x="10.67" y="0">w</tspan><tspan class="cls-14" x="15.02" y="0">o</tspan><tspan class="cls-17" x="18.31" y="0">r</tspan><tspan class="cls-14" x="20.21" y="0">d</tspan></text></g><text class="cls-12" transform="translate(390.16 396.9)">E<tspan class="cls-29" x="2.95" y="0">n</tspan><tspan class="cls-14" x="6.25" y="0">t</tspan><tspan class="cls-30" x="8.24" y="0">r</tspan><tspan x="10.34" y="0">y pass</tspan><tspan class="cls-17" x="25.48" y="0">w</tspan><tspan class="cls-14" x="29.83" y="0">o</tspan><tspan class="cls-17" x="33.13" y="0">r</tspan><tspan class="cls-14" x="35.03" y="0">d</tspan></text><rect class="cls-6" x="383.42" y="384.23" width="144.79" height="21.82" rx="2.76"/><path class="cls-31" d="M599.26,584.16c0-1.71-41.7-3.09-93.14-3.09S413,582.45,413,584.16s41.7,3.08,93.14,3.08S599.26,585.86,599.26,584.16Z"/><path class="cls-32" d="M516,387.08s9.26,14.3,11.35,8.1,3.38-10,3.38-10-2.63-4.31-4-3-3.34-1.13-3.34-1.13Z"/><path class="cls-32" d="M561.7,313.17,565.52,291c2.51-.81,5.1-2.75,4.21-5.75a4.38,4.38,0,0,0-3-2.81c-.52-.2-3.19-1-3.38.06,0,0,1.46-8,1.46-8l-26-12.57s-2.37,15.94-2.4,16.13c0-.25-2.53-.83-2.88-.79a4.35,4.35,0,0,0-3.09,2.5c-1.36,3,1.26,6.84,4.54,6.9,0,0,.44,7.15,2.1,9.68s9.32,4.29,9.32,4.29l-.84,9.67Z"/><path class="cls-33" d="M570.5,315c-11.77-3.3-28.3-6.21-28.3-6.21l-11,78.1,46.2-1.43Z"/><path class="cls-33" d="M570.5,315a303.93,303.93,0,0,0,46.34,8.7c-3.52-16-5.45-28.24-10.05-41.84l17.35-4.41s14.55,50.69,10.14,57.45c-7.52,11.5-44.95,3.92-44.95,3.92l-17.7-3.15Z"/><path class="cls-33" d="M491.38,332.18s49.59-24.25,51.87-23.36S547.46,321,547.46,321a439.11,439.11,0,0,1-45.77,24.36L527,379.73l-12.59,9s-34.72-39-33.4-47.08C482,335.46,491.38,332.18,491.38,332.18Z"/><path class="cls-32" d="M623.39,277.63s-2-14.35-2.29-14.76-.25-2.94-3.93-2.33c0,0-.25-4.54-2.38-4.62a18.9,18.9,0,0,0-4.5.49s-2.39-11.66-3.95-13.68c-1.7-2.2-4.07,3.61-.39,17.81,0,0,2,9.67,1.43,10-1.64,1-3.91.79-7-4.58-3.33-5.69-7.49-3.76-5.44.66s5,10.14,6.83,11.69,5.86,1.33,5.86,1.33l.58,1.84Z"/><path class="cls-34" d="M577.43,385.45C571.87,470,553,574.25,553,574.25l18.51,7.84H532.07l25.85-184.44h-8.86L483.69,582.2H444.34L466.73,574l65.34-193.17Z"/><path class="cls-35" d="M568,283c2.2-4.41,4.78-15.09-1.91-18.07a68.45,68.45,0,0,1-9.72-5.54,16.93,16.93,0,0,0-13.86-2.5,12.9,12.9,0,0,0-2.2.82c-4.67,2.29-7.82,14.7-7.82,14.7l4.59,1.15s5.11,22.74,13.53,27.42l8.4,1.78,5,1.12Z"/><path class="cls-35" d="M561.72,263.35a32.67,32.67,0,0,0-.16-4.08c0-.37-.63-.38-.59,0a30.86,30.86,0,0,1,.15,4.08c0,.38.59.38.6,0Z"/><path class="cls-35" d="M561.79,263.4c.56-.36.75-1,1.06-1.6a16.3,16.3,0,0,1,1.34-2c.24-.3-.28-.6-.51-.3a15.79,15.79,0,0,0-1.1,1.61c-.31.51-.58,1.49-1.09,1.82-.32.2,0,.72.3.51Z"/><text class="cls-36" transform="translate(407.64 207.86)">C<tspan class="cls-37" x="10.53" y="0">r</tspan><tspan class="cls-38" x="16.31" y="0">ear cue</tspan><tspan class="cls-39" x="71.46" y="0">n</tspan><tspan class="cls-38" x="81.52" y="0">ta</tspan></text></svg>