<svg id="Capa_1" data-name="Capa 1" xmlns="http://www.w3.org/2000/svg" viewBox="0 0 800 600"><defs><style>.cls-1{fill:#fcf7f2;opacity:0.89;}.cls-12,.cls-2,.cls-4{fill:#606060;}.cls-2{opacity:0.29;}.cls-3{fill:#00dfbf;}.cls-5{fill:#404040;}.cls-6{fill:#f0f0f0;}.cls-7{opacity:0.5;}.cls-25,.cls-8{fill:#878787;}.cls-9{fill:#1a2e35;}.cls-10{fill:#c1c1c1;}.cls-11,.cls-25,.cls-27{opacity:0.4;}.cls-12,.cls-32,.cls-33{opacity:0.15;}.cls-13{fill:#c04319;}.cls-14{fill:#eb702d;}.cls-15{fill:#375a64;}.cls-16{fill:#2b454e;}.cls-17{fill:#fafafa;}.cls-18{fill:#c7521c;}.cls-19{fill:#d86030;}.cls-20{fill:#fff;}.cls-21{fill:#e7e7e7;}.cls-22{fill:#ffaaa8;}.cls-23{fill:#e1e1e1;}.cls-24{fill:#ff9090;}.cls-26,.cls-27{fill:#8e8e8e;}.cls-28{fill:#848484;}.cls-29{fill:#b5b5b5;}.cls-30{fill:#999;}.cls-31{opacity:0.1;}.cls-33{fill:none;stroke:#000;stroke-miterlimit:10;}</style></defs><title>login</title><ellipse id="Floor" class="cls-1" cx="396.36" cy="381.57" rx="353.36" ry="204.01"/><path id="Shadow" class="cls-2" d="M569.3,492.92c-20.18-11.66-20.18-30.55,0-42.2s52.91-11.65,73.09,0,20.19,30.54,0,42.2S589.49,504.57,569.3,492.92Z"/><path id="Shadow-2" data-name="Shadow" class="cls-2" d="M158.76,494.53l-53.09-30.65c-3-1.73-3-4.53,0-6.26L414.5,279.32a12,12,0,0,1,10.84,0L478.43,310c3,1.73,3,4.53,0,6.26L169.6,494.53A12,12,0,0,1,158.76,494.53Z"/><path class="cls-3" d="M349.61,439.9l45.64-26.39c4.71-2.71,7.06-6.27,7.06-9.83s0-6.35,0-6.35L355,370.62a10,10,0,0,1-4.54-7.87V306.48l-79.72,46.07v56.27a10,10,0,0,0,4.55,7.87l40.28,23.21C324.94,445.34,340.2,445.34,349.61,439.9Z"/><path class="cls-4" d="M349.61,439.9l45.64-26.39c4.71-2.71,7.06-6.27,7.06-9.83s0-6.35,0-6.35L355,370.62a10,10,0,0,1-4.54-7.87V306.48l-79.72,46.07v56.27a10,10,0,0,0,4.55,7.87l40.28,23.21C324.94,445.34,340.2,445.34,349.61,439.9Z"/><path class="cls-5" d="M289.85,418.79v6.32l-14.62-8.42a10.06,10.06,0,0,1-4.53-7.87V352.55l15.19-8.76c.31,3.85.65,7.84,1,11.72l-10.65,6.17v44a10,10,0,0,0,4.53,7.87Z"/><path class="cls-6" d="M276.2,405.65a10,10,0,0,0,4.55,7.87l34.78,20c9.41,5.43,24.66,5.43,34.07,0l45.67-26.39c9.41-5.43,9.41-14.24,0-19.67l-34.8-20.05a10,10,0,0,1-4.54-7.87v-44L276.2,361.68Z"/><path class="cls-6" d="M276.2,405.65a10,10,0,0,0,4.55,7.87l34.78,20c9.41,5.43,24.66,5.43,34.07,0l45.67-26.39c9.41-5.43,9.41-14.24,0-19.67l-34.8-20.05a10,10,0,0,1-4.54-7.87v-44L276.2,361.68Z"/><path class="cls-7" d="M369.73,372.8h0l-9.26-5.35a10,10,0,0,1-4.54-7.87v-44L276.2,361.68v44a10,10,0,0,0,4.55,7.87l9.09,5.25Z"/><path class="cls-4" d="M402.32,397.33v6.35c0,3.57-2.36,7.11-7.06,9.84l-45.65,26.37c-4.51,2.63-10.36,3.94-16.26,4v-6.32a34.13,34.13,0,0,0,16.26-4l45.65-26.4C400,404.47,402.32,400.9,402.32,397.33Z"/><path class="cls-4" d="M402.32,397.33v6.35c0,3.57-2.36,7.11-7.06,9.84l-45.65,26.37c-4.51,2.63-10.36,3.94-16.26,4v-6.32a34.13,34.13,0,0,0,16.26-4l45.65-26.4C400,404.47,402.32,400.9,402.32,397.33Z"/><path class="cls-8" d="M148.2,460.31c2.94,1.7,7.87,1.6,11-.21,39.2-22.62,269.13-155.37,308.32-178a12.56,12.56,0,0,0,5.68-9.83V22.85c0-3.62-2.39-7.93-5.33-9.63s-7.87-1.61-11,.2l-308.31,178a12.58,12.58,0,0,0-5.68,9.84V450.67C142.87,454.3,145.26,458.61,148.2,460.31Z"/><path class="cls-6" d="M159.21,460.1l308.31-178a12.55,12.55,0,0,0,5.68-9.84V22.84c0-3.62-2.54-5.09-5.68-3.27l-308.31,178a12.53,12.53,0,0,0-5.68,9.83V456.82C153.53,460.44,156.07,461.91,159.21,460.1Z"/><path class="cls-6" d="M159.21,462.71l308.31-178a12.55,12.55,0,0,0,5.68-9.84V25.46c0-3.62-2.54-5.09-5.68-3.28l-308.31,178a12.54,12.54,0,0,0-5.68,9.84V459.43C153.53,463.05,156.07,464.52,159.21,462.71Z"/><path class="cls-8" d="M158.37,466.58c-3.15,1.39-7.5,1.34-10.18-.21-2.94-1.7-5.32-6-5.32-9.65V434l10.65,6.16v22.71C153.52,466.19,155.62,467.68,158.37,466.58Z"/><path class="cls-8" d="M158.37,466.58c-3.15,1.39-7.5,1.34-10.18-.21-2.94-1.7-5.32-6-5.32-9.65V434l10.65,6.16v22.71C153.52,466.19,155.62,467.68,158.37,466.58Z"/><path class="cls-6" d="M153.52,440.17v22.7c0,3.62,2.54,5.09,5.68,3.28l308.31-178a12.54,12.54,0,0,0,5.68-9.84V255.56Z"/><path class="cls-6" d="M153.53,440.12v22.75c0,3.62,2.54,5.09,5.68,3.28l308.31-178a12.54,12.54,0,0,0,5.68-9.84V255.56Z"/><path class="cls-3" d="M164.18,411.68V210.94a7.53,7.53,0,0,1,3.41-5.9L459.13,36.72c1.88-1.09,3.41-.21,3.41,2V239.43a7.53,7.53,0,0,1-3.41,5.9L167.59,413.65C165.71,414.73,164.18,413.85,164.18,411.68Z"/><path class="cls-9" d="M164.18,411.68V210.94a7.53,7.53,0,0,1,3.41-5.9L459.13,36.72c1.88-1.09,3.41-.21,3.41,2V239.43a7.53,7.53,0,0,1-3.41,5.9L167.59,413.65C165.71,414.73,164.18,413.85,164.18,411.68Z"/><path class="cls-3" d="M313.36,355.09a11.79,11.79,0,0,0-5.33,9.23c0,3.4,2.39,4.78,5.33,3.08a11.79,11.79,0,0,0,5.33-9.23C318.69,354.77,316.3,353.39,313.36,355.09Z"/><path class="cls-10" d="M473.14,21.91c-.4-2.93-2.77-4-5.63-2.35l-308.3,178a11.69,11.69,0,0,0-4,4.22l-10.65-6.15a11.76,11.76,0,0,1,4-4.22l308.3-178c3.14-1.81,8.06-1.9,11-.2C470.56,14.77,472.78,18.51,473.14,21.91Z"/><g id="Window"><g id="Window-2" data-name="Window"><path class="cls-4" d="M489.78,52.6a2.81,2.81,0,0,0-2.9.23L196,220.82a8.78,8.78,0,0,0-4,6.89V427.23a3.87,3.87,0,0,0,1.68,3.46c.65.35,4.07,2.34,5.08,2.88a2.3,2.3,0,0,0,2.31-.13L492,265.38a8.78,8.78,0,0,0,4-6.88V58a2.75,2.75,0,0,0-1.24-2.61C494,55,490.51,53,489.78,52.6Z"/><path class="cls-4" d="M201,223.7,492,55.71c2.19-1.26,4-.24,4,2.3V258.5a8.78,8.78,0,0,1-4,6.88L201.05,433.44c-2.2,1.26-4-.79-4-3.33V230.6A8.8,8.8,0,0,1,201,223.7Z"/><path class="cls-4" d="M193.65,430.69c.43.22,3.53,2,4.88,2.76a4,4,0,0,1-1.46-3.34V243.62l-5.1-3v186.6A3.89,3.89,0,0,0,193.65,430.69Z"/><path class="cls-4" d="M495.94,58c0-2.51-1.79-3.53-4-2.27L201,223.7a8.8,8.8,0,0,0-4,6.9v13L495.94,71Z"/><g class="cls-11"><path class="cls-4" d="M492,55.71l-290.91,168a8.27,8.27,0,0,0-2.81,3l-5.05-2.93a7.86,7.86,0,0,1,2.77-2.91l290.92-168a2.8,2.8,0,0,1,2.89-.23c.72.43,4,2.31,4.86,2.76A2.88,2.88,0,0,0,492,55.71Z"/></g><path class="cls-12" d="M192,240.65V227.71a8.17,8.17,0,0,1,1.21-4l5.07,2.91a8.07,8.07,0,0,0-1.19,4v13Z"/></g></g><path class="cls-3" d="M434.59,208.38,260.35,309a6.4,6.4,0,0,0-2.91,5v50a6.42,6.42,0,0,0,2.91,5l5.09,2.93a6.45,6.45,0,0,0,5.82,0L445.48,271.34a6.44,6.44,0,0,0,2.91-5l0-50a6.42,6.42,0,0,0-2.91-5l-5.09-2.93A6.45,6.45,0,0,0,434.59,208.38Z"/><path class="cls-13" d="M448.39,215.86c-.2-1.5-1.43-2.05-2.89-1.21L271.26,315.25a5.84,5.84,0,0,0-2.05,2.18l-10.91-6.3a6,6,0,0,1,2-2.15l174.25-100.6a6.42,6.42,0,0,1,5.82,0l5.09,2.93A6.48,6.48,0,0,1,448.39,215.86Z"/><path class="cls-9" d="M270.77,372.16a6.52,6.52,0,0,1-5.32-.23L260.36,369a6.4,6.4,0,0,1-2.92-5V314a6,6,0,0,1,.86-2.88l10.91,6.3a5.78,5.78,0,0,0-.86,2.86v50C268.35,371.91,269.4,372.68,270.77,372.16Z"/><path class="cls-14" d="M271.26,315.25,445.5,214.65c1.61-.92,2.91-.17,2.91,1.68l0,50a6.44,6.44,0,0,1-2.91,5L271.26,371.92c-1.61.93-2.91.18-2.91-1.68V320.29A6.44,6.44,0,0,1,271.26,315.25Z"/><path class="cls-15" d="M388.4,235.05,260.34,309a6,6,0,0,0-2,2.15l10.91,6.3a5.84,5.84,0,0,1,2.05-2.18l128-73.92Z"/><path class="cls-16" d="M399.29,241.34l-128,73.91a6.44,6.44,0,0,0-2.91,5v49.95c0,1.86,1.3,2.61,2.91,1.68l128-73.92Z"/><path class="cls-14" d="M300.79,309.17,366.85,271c2.74-1.58,5-.46,5,2.51a10.63,10.63,0,0,1-5,8.23l-66.06,38.14c-2.74,1.58-5,.46-5-2.51A10.63,10.63,0,0,1,300.79,309.17Z"/><path class="cls-17" d="M314.32,321.79a.15.15,0,0,1,.2,0,.46.46,0,0,1,.08.29v7.44a11.36,11.36,0,0,1-.19,2.14,8.55,8.55,0,0,1-.55,1.88,6.32,6.32,0,0,1-.91,1.54,4.69,4.69,0,0,1-1.28,1.08,2.24,2.24,0,0,1-1.28.39,1.2,1.2,0,0,1-.91-.48,2.85,2.85,0,0,1-.55-1.24,9,9,0,0,1-.18-1.93V325.5a1.09,1.09,0,0,1,.08-.39.51.51,0,0,1,.2-.26l.82-.48a.15.15,0,0,1,.2,0,.46.46,0,0,1,.08.29v7.35a5.61,5.61,0,0,0,.11,1.21,1.54,1.54,0,0,0,.32.68.61.61,0,0,0,.49.2,1.25,1.25,0,0,0,.62-.2,2.72,2.72,0,0,0,.63-.52,2.82,2.82,0,0,0,.49-.77,4.46,4.46,0,0,0,.32-1,6.81,6.81,0,0,0,.12-1.34v-7.35a1.09,1.09,0,0,1,.08-.39.56.56,0,0,1,.2-.26Z"/><path class="cls-17" d="M319.45,328.83a.41.41,0,0,0-.08-.28.32.32,0,0,0-.24-.1,2.58,2.58,0,0,0-.48.06l-.75.15a1.52,1.52,0,0,1-.75,0,.81.81,0,0,1-.47-.36,1.7,1.7,0,0,1-.26-.68,6.74,6.74,0,0,1-.07-1,4.86,4.86,0,0,1,.15-1.16,5.61,5.61,0,0,1,.41-1.17,5.09,5.09,0,0,1,.66-1,3.09,3.09,0,0,1,.89-.77,2,2,0,0,1,.89-.31,1.13,1.13,0,0,1,.67.13,1.28,1.28,0,0,1,.43.51,2.06,2.06,0,0,1,.17.76.78.78,0,0,1-.08.39.46.46,0,0,1-.2.26l-.78.45c-.1.06-.18.07-.23,0l-.17-.13a.43.43,0,0,0-.24-.09.87.87,0,0,0-.46.17,1.73,1.73,0,0,0-.54.47,1.12,1.12,0,0,0-.24.72.61.61,0,0,0,.06.3.24.24,0,0,0,.21.12,1.38,1.38,0,0,0,.44,0l.73-.14a1.16,1.16,0,0,1,1.28.34,2.74,2.74,0,0,1,.37,1.6,4.86,4.86,0,0,1-.15,1.16,6,6,0,0,1-.44,1.18,5.5,5.5,0,0,1-.72,1.06,3.78,3.78,0,0,1-.95.8,2.09,2.09,0,0,1-1,.32,1.1,1.1,0,0,1-.69-.18,1.21,1.21,0,0,1-.44-.57,2,2,0,0,1-.17-.79.91.91,0,0,1,.08-.39.51.51,0,0,1,.2-.26l.78-.45c.11-.06.18-.06.23,0l.18.19a.44.44,0,0,0,.27.14,1.05,1.05,0,0,0,.52-.18,2.58,2.58,0,0,0,.31-.22,2.09,2.09,0,0,0,.31-.29,1.59,1.59,0,0,0,.22-.35A.81.81,0,0,0,319.45,328.83Z"/><path class="cls-17" d="M322.11,325.28a12.21,12.21,0,0,1,.17-2,10.6,10.6,0,0,1,.5-1.85,6.63,6.63,0,0,1,.79-1.5,3.3,3.3,0,0,1,1-1,1.45,1.45,0,0,1,1-.23,1.39,1.39,0,0,1,.79.54,3.41,3.41,0,0,1,.5,1.18,7.06,7.06,0,0,1,.18,1.67v.81a1,1,0,0,1-.08.39.51.51,0,0,1-.2.26l-3.4,2a2.15,2.15,0,0,0,.09.68.85.85,0,0,0,.26.38.52.52,0,0,0,.38.11,1.13,1.13,0,0,0,.44-.14,2.12,2.12,0,0,0,.53-.43,2.27,2.27,0,0,0,.34-.49,2.35,2.35,0,0,1,.18-.31.67.67,0,0,1,.2-.16l.81-.47a.13.13,0,0,1,.2,0,.42.42,0,0,1,.08.3,3.32,3.32,0,0,1-.16.74,5.64,5.64,0,0,1-.45,1,6.08,6.08,0,0,1-.72,1.07,3.72,3.72,0,0,1-1,.85,1.53,1.53,0,0,1-1,.25,1.25,1.25,0,0,1-.79-.55,3.71,3.71,0,0,1-.5-1.26A9.39,9.39,0,0,1,322.11,325.28Zm2.5-4.17a1.67,1.67,0,0,0-.5.45,3.67,3.67,0,0,0-.36.6,4,4,0,0,0-.22.67,4,4,0,0,0-.09.63l2.3-1.33a5.15,5.15,0,0,0-.07-.53,1.11,1.11,0,0,0-.19-.44.5.5,0,0,0-.33-.2A.92.92,0,0,0,324.61,321.11Z"/><path class="cls-17" d="M331.22,317.48a2,2,0,0,0-.88,1,4.49,4.49,0,0,0-.27,1.72v4.72a1,1,0,0,1-.08.39.51.51,0,0,1-.2.26L329,326a.13.13,0,0,1-.19,0,.4.4,0,0,1-.09-.29v-8.46a.92.92,0,0,1,.09-.39.55.55,0,0,1,.19-.26l.77-.44a.13.13,0,0,1,.2,0,.47.47,0,0,1,.08.3v.41a5.63,5.63,0,0,1,.57-1,2.45,2.45,0,0,1,.79-.7l.46-.26a.14.14,0,0,1,.19,0,.45.45,0,0,1,.08.3v1.2a.91.91,0,0,1-.08.39.47.47,0,0,1-.19.25Z"/><path class="cls-17" d="M341,316.84a.14.14,0,0,1,.19,0,.45.45,0,0,1,.09.3v1.29a.92.92,0,0,1-.09.39.55.55,0,0,1-.19.26l-4.47,2.58a.14.14,0,0,1-.19,0,.45.45,0,0,1-.09-.3V309.64a.86.86,0,0,1,.09-.39.45.45,0,0,1,.19-.26l.83-.48a.13.13,0,0,1,.19,0,.4.4,0,0,1,.08.29v9.94Z"/><path class="cls-17" d="M345,307.18a1.69,1.69,0,0,1,1-.28,1.19,1.19,0,0,1,.78.4,2.43,2.43,0,0,1,.53,1,5,5,0,0,1,.23,1.43c0,.1,0,.24,0,.41v1c0,.16,0,.3,0,.41a9.79,9.79,0,0,1-.23,1.7,8.17,8.17,0,0,1-.53,1.56,6.14,6.14,0,0,1-.78,1.3,3.67,3.67,0,0,1-1,.89,1.69,1.69,0,0,1-1,.28,1.22,1.22,0,0,1-.78-.39,2.46,2.46,0,0,1-.53-.95,5.86,5.86,0,0,1-.23-1.43c0-.11,0-.24,0-.4v-1c0-.17,0-.31,0-.42a9,9,0,0,1,.23-1.7,8.52,8.52,0,0,1,.53-1.57,6.22,6.22,0,0,1,.78-1.31A3.67,3.67,0,0,1,345,307.18Zm1.24,3.37a2.77,2.77,0,0,0-.15-.85.88.88,0,0,0-.29-.42.52.52,0,0,0-.38-.09,1.45,1.45,0,0,0-.42.16,2.22,2.22,0,0,0-.8.84,4.16,4.16,0,0,0-.29.76,5.84,5.84,0,0,0-.14,1c0,.1,0,.23,0,.37s0,.3,0,.46,0,.31,0,.46a3,3,0,0,0,0,.35,3.16,3.16,0,0,0,.14.84.92.92,0,0,0,.29.43.57.57,0,0,0,.38.08,1.45,1.45,0,0,0,.42-.16,2.42,2.42,0,0,0,.42-.33,2.12,2.12,0,0,0,.38-.51,3.9,3.9,0,0,0,.29-.76,4.79,4.79,0,0,0,.15-1c0-.09,0-.21,0-.36v-.92C346.23,310.76,346.22,310.64,346.22,310.55Z"/><path class="cls-17" d="M351.54,314.82a1.8,1.8,0,0,0,.44-.37,2.82,2.82,0,0,0,.41-.61,4.13,4.13,0,0,0,.3-.82,3.81,3.81,0,0,0,.12-1v-.67c-.06.14-.13.29-.22.47a3.06,3.06,0,0,1-.32.54,3.53,3.53,0,0,1-.44.53,2.38,2.38,0,0,1-.56.43,1.18,1.18,0,0,1-.93.18,1.23,1.23,0,0,1-.7-.53,3.4,3.4,0,0,1-.46-1.1,6.81,6.81,0,0,1-.19-1.49c0-.18,0-.39,0-.63s0-.46,0-.64a10.17,10.17,0,0,1,.19-1.72,10,10,0,0,1,.46-1.63,6.6,6.6,0,0,1,.7-1.35,3.07,3.07,0,0,1,.93-.88,1.61,1.61,0,0,1,.56-.22,1,1,0,0,1,.44,0,.66.66,0,0,1,.32.17,1.19,1.19,0,0,1,.22.23v-.42a.91.91,0,0,1,.08-.39.5.5,0,0,1,.19-.26l.78-.45a.13.13,0,0,1,.19,0,.4.4,0,0,1,.09.29v8.51a8.9,8.9,0,0,1-.69,3.71,4.74,4.74,0,0,1-1.91,2.22,2.07,2.07,0,0,1-1,.31,1.24,1.24,0,0,1-.77-.21,1.55,1.55,0,0,1-.52-.63,2.45,2.45,0,0,1-.22-.93.91.91,0,0,1,.08-.39.51.51,0,0,1,.2-.26l.69-.4a.17.17,0,0,1,.25,0l.17.22a.6.6,0,0,0,.36.29A1,1,0,0,0,351.54,314.82Zm-1.22-6.33a8.5,8.5,0,0,0,0,1,2.19,2.19,0,0,0,.41,1.46.66.66,0,0,0,.84,0,2.18,2.18,0,0,0,.85-1,4.85,4.85,0,0,0,.39-1.73c0-.19,0-.43,0-.71s0-.5,0-.67a2,2,0,0,0-.39-1.26.62.62,0,0,0-.85-.06,2.25,2.25,0,0,0-.84,1A5,5,0,0,0,350.32,308.49Z"/><path class="cls-17" d="M357.16,296.88a.14.14,0,0,1,.19,0,.51.51,0,0,1,.08.3v1.42a1.09,1.09,0,0,1-.08.39.55.55,0,0,1-.19.26l-.88.5a.13.13,0,0,1-.2,0,.49.49,0,0,1-.08-.3V298a1,1,0,0,1,.08-.39.51.51,0,0,1,.2-.26Zm.22,12.26a1,1,0,0,1-.08.39.51.51,0,0,1-.2.26l-.77.45a.14.14,0,0,1-.19,0,.45.45,0,0,1-.09-.3v-8.45a.93.93,0,0,1,.09-.4.52.52,0,0,1,.19-.25l.77-.45a.15.15,0,0,1,.2,0,.51.51,0,0,1,.08.3Z"/><path class="cls-17" d="M364.28,305.16a1,1,0,0,1-.08.39.51.51,0,0,1-.2.26l-.77.45a.15.15,0,0,1-.2,0,.46.46,0,0,1-.08-.29v-4.61a3.3,3.3,0,0,0-.28-1.58c-.19-.32-.49-.37-.88-.14a2.09,2.09,0,0,0-.85,1.14,5.45,5.45,0,0,0-.31,1.92v4.61a.92.92,0,0,1-.09.39.5.5,0,0,1-.19.26l-.77.45a.14.14,0,0,1-.2,0,.46.46,0,0,1-.08-.29v-8.46a1.09,1.09,0,0,1,.08-.39.5.5,0,0,1,.2-.26l.77-.44a.12.12,0,0,1,.19,0,.41.41,0,0,1,.09.3v.41a6.24,6.24,0,0,1,.62-1.14,2.65,2.65,0,0,1,.85-.79,1.45,1.45,0,0,1,1-.26,1.07,1.07,0,0,1,.67.54,3.12,3.12,0,0,1,.36,1.14,10.6,10.6,0,0,1,.11,1.56Z"/><path class="cls-15" d="M430.18,267.14l-12.69,7.32,2-17.79c-1.52-.81-2.49-2.78-2.49-5.62,0-5.05,3.08-10.92,6.87-13.11s6.86.13,6.86,5.19a17.34,17.34,0,0,1-2.48,8.48Z"/><polygon class="cls-16" points="430.18 267.14 419.01 260.69 417.49 274.46 430.18 267.14"/><path class="cls-16" d="M423.84,237.94c-2.48,1.43-4.65,4.44-5.85,7.77l10.23,5.9h0a17.34,17.34,0,0,0,2.48-8.48C430.7,238.07,427.63,235.75,423.84,237.94Z"/><path class="cls-3" d="M362.15,178.7c-4.34-2.52-10.34-2.16-17,1.67-13.24,7.64-24,26.24-24,41.54,0,7.68,2.71,13.06,7.08,15.55l8.45,4.9c4.34,2.51,10.33,2.15,16.95-1.67,13.25-7.65,24-26.25,24-41.55,0-7.64-2.69-13-7-15.52"/><path class="cls-14" d="M353.68,185.29c-13.24,7.66-24,26.25-24,41.55s10.74,21.49,24,13.85,24-26.25,24-41.55S366.91,177.65,353.68,185.29Z"/><path class="cls-3" d="M366.92,219.23V221c-3.41,5.82-8.09,10.9-13.24,13.87s-9.82,3.3-13.24,1.4v-3.62c0-7,4.74-15.19,10.79-18.69l3.48-2c3.09-1.78,6.09-2,8.45-.65S366.92,215.56,366.92,219.23Z"/><path class="cls-18" d="M362.15,178.7l8.5,4.92c-4.35-2.51-10.34-2.16-17,1.67-8.67,5-16.27,14.72-20.48,25.12l-8.5-4.93c4.21-10.4,11.81-20.11,20.48-25.11C351.81,176.54,357.81,176.18,362.15,178.7Z"/><path class="cls-13" d="M336.41,242.17l-8.14-4.71c-4.36-2.5-7.07-7.88-7.07-15.55l8.5,4.93C329.7,234.3,332.26,239.59,336.41,242.17Z"/><path class="cls-19" d="M324.7,205.48l8.5,4.93a44.53,44.53,0,0,0-3.5,16.43h0l-8.5-4.93A44.53,44.53,0,0,1,324.7,205.48Z"/><path class="cls-20" d="M350.67,211.12a4.6,4.6,0,0,1-2.31-.6c-1.62-.94-2.5-2.79-2.5-5.21a14.93,14.93,0,0,1,6.84-11.86h0c2.09-1.21,4.13-1.37,5.76-.43s2.51,2.78,2.51,5.2a14.93,14.93,0,0,1-6.85,11.86A6.94,6.94,0,0,1,350.67,211.12Z"/><path class="cls-20" d="M363.16,211.28c-2.36-1.36-5.36-1.13-8.45.65l-3.48,2c-6.05,3.5-10.79,11.71-10.79,18.69v3.62c3.42,1.9,8.08,1.57,13.24-1.4s9.83-8,13.24-13.87v-1.75C366.92,215.56,365.56,212.67,363.16,211.28Z"/><g id="Clouds"><path class="cls-21" d="M559.83,78.49l4.16,1.6V70.93c0-7.26,5.79-9,12.08-5.37h0c6.29,3.63,11.39,12.46,11.39,19.72v1.33c1.42-.57,3.26-.35,5.28.82h0c4.52,2.61,8.19,9,8.19,14.19v.6l5.8,3.35a11.92,11.92,0,0,1,5.4,9.35c0,3.44-2.42,4.83-5.4,3.11L559.83,91a11.91,11.91,0,0,1-5.39-9.34C554.44,78.17,556.85,76.77,559.83,78.49Z"/><path class="cls-21" d="M615.48,71.25,623,75.61c0-.34-.06-.67-.06-1V72.42c0-3.88,2.73-5.46,6.09-3.51a11.55,11.55,0,0,1,3.63,3.49c.55-4.89,4.39-6.71,9-4,5,2.91,9.12,10,9.12,15.79v3.27a8.65,8.65,0,0,1-.77,3.78l6.26,3.62a7.44,7.44,0,0,1,3.38,5.85c0,2.15-1.51,3-3.38,2L615.48,79.06a7.47,7.47,0,0,1-3.38-5.85C612.1,71.05,613.61,70.18,615.48,71.25Z"/></g><path class="cls-22" d="M586.29,269.53c-5.48,9.28-10.76,17.34-14.47,21.2-7,3.27-23.58,8.3-30.05,9.15a4.8,4.8,0,0,1-3.24-.77c-2.55-1.67-4.51-1.94-7.2-2.86-2.1-.73-3-1.73-3.38-1.35a2.37,2.37,0,0,0,.22,3.32,17.06,17.06,0,0,0,3.32,2.49,19.58,19.58,0,0,1-8.76.15c-5.6-1.47-8.24,1.22-4.45,7.31,1.35,2.17,6.69,5.66,17.51,4.72a95.56,95.56,0,0,0,11.5-1.36c10.38-2.22,21.92-4.36,29-6.48a18.53,18.53,0,0,0,6.89-4.78c11.93-13.6,15.88-23.29,21.11-32.1l-.45-14.39C595.41,253.52,590.88,261.77,586.29,269.53Z"/><path class="cls-17" d="M588.52,294.21c-7.68-1.42-11.08-8.52-11.66-9.84,1.18-2,10.54-18.13,15.92-25a13.43,13.43,0,0,1,10.72-5.48,10.56,10.56,0,0,1,1.51.1c4.45,7.65-2.08,20.75-2.15,20.88Z"/><path class="cls-23" d="M603.5,254.37a11.38,11.38,0,0,1,1.2.06c3.91,7.15-1.74,19.09-2.25,20.13l-14.14,19.09c-6.87-1.42-10.12-7.58-10.89-9.25,1.61-2.77,10.55-18.09,15.75-24.74a13,13,0,0,1,10.33-5.29m0-1a13.86,13.86,0,0,0-11.11,5.68c-5.81,7.43-16.08,25.28-16.08,25.28s3.37,8.95,12.43,10.42l14.57-19.67s6.89-13.62,2-21.56a9.44,9.44,0,0,0-1.82-.15Z"/><rect class="cls-22" x="627.32" y="454.13" width="9.49" height="16.93"/><polygon class="cls-22" points="603.89 453.23 594.4 453.57 593.93 435.65 603.89 435.31 603.89 453.23"/><path class="cls-16" d="M638.15,307.57c0,9.44-1.39,85.43-1.39,85.43.22,2.72,2.66,7.73,2.13,18.17-.72,14.17-1.67,51.43-1.67,51.43a12.07,12.07,0,0,1-10.58.21s-7.69-52.2-9.39-66.25c-1.49-12.26-5.29-52.94-5.29-52.94l-5.15,48A58.62,58.62,0,0,1,608,407.34c-.44,6.5-3.5,40.34-3.5,40.34a12.51,12.51,0,0,1-11,.87s-5.4-51-5.51-56.93c-.13-6.79,3.16-84.16,3.16-84.16Z"/><path class="cls-9" d="M627.32,466.18v-1.41c-.91.41-3,8.8-6.79,12.37-3,2.85-7.08,6.14-8.12,9.31s5.69,5.12,8.49,4.6c3.25-.6,8.88-3,10.3-5.19s2.07-5.47,3.22-7.09,3.8-3.43,4.42-5.31c.35-1-.06-3.28-.54-5.19-.44-1.75-.92-3.67-1.49-3.5v1.07a7.28,7.28,0,0,1-4.75,1.67C630.67,467.57,627.3,467.28,627.32,466.18Z"/><path class="cls-9" d="M594.3,450.52c-.49,0-.89.74-2,2a20.52,20.52,0,0,1-5.59,4.18c-3.55,1.86-10.46,4.71-13.59,6.18-1.95.91-1.86,3.37.16,4.77s6.89,2.41,12.75,1c3.19-.74,7.34-3.81,10-3.64s7.55.12,9.49-1.27,1.16-4.37.62-6.92c-.6-2.79-1.35-7.14-2.24-6.95v1c-1.14,1.8-7,2.53-9.54,1.21Z"/><path class="cls-9" d="M612,343.62a34.66,34.66,0,0,1-13.22-7.89s2.55,5,10.14,9.6l-1.63,42.87Z"/><path class="cls-18" d="M632.83,254.93s7.81,1.81,7.28,16l-1.64,22.55,0,33.83c-7,7.92-37.93,7.34-48.53-.63,0,0,1.2-40,1.92-55.45.51-10.95,3-16.47,13.79-17.67l13.24.58Z"/><path class="cls-9" d="M622.86,225.51c0,8.13-6.33,14.72-14.14,14.72s-12.43-6.77-14.13-14.72c-3.13-14.54,6.32-14.73,14.13-14.73S622.86,217.38,622.86,225.51Z"/><path class="cls-9" d="M630.07,231.46s-2.17,10.61-3,12.35a4.61,4.61,0,0,1-2.67,2.24l.16-7.46Z"/><path class="cls-9" d="M627.35,216.26s1.55-.38,3.2,2.2c1.42,2.21,1.74,7.18-.48,13L626,232Z"/><path class="cls-9" d="M628.85,218.41l5,.1a2.36,2.36,0,0,0-2.29-2.65A2.77,2.77,0,0,0,628.85,218.41Z"/><path class="cls-9" d="M629.46,217.23l3.71-3.57a2.39,2.39,0,0,0-3.51-.14A2.73,2.73,0,0,0,629.46,217.23Z"/><path class="cls-22" d="M624.76,232c.82.51,2-1.13,3-2.23s4.18-2.14,5.82,1.47-1.16,7.18-3.51,8.35c-4.22,2.09-5.55-.95-5.55-.95l-.35,16.8c-5.93,9.19-19.38,8.86-14.55-.44l0-5.12a26.88,26.88,0,0,1-6,.33c-3.29-.53-5.36-3.24-6.36-6.94-1.6-6-2.21-10.77-.85-22.48,1.49-12.84,15.83-13,23.57-7.9S624.76,232,624.76,232Z"/><path class="cls-9" d="M606.89,218.73c3.42-.34,6.81-1,10.24-1.29a6.37,6.37,0,0,1,2.22.11c2.63.71,2.29,3.76,2.71,5.9.72,3.68,1.31,9.91,2.7,9.94.41,0,2-2.7,3-3.67.66-.62.77-2,.91-2.81.26-1.52.4-3.06.52-4.61.1-1.3.23-2.63.22-3.94a17.48,17.48,0,0,0-.34-4.39,7.7,7.7,0,0,0-1.83-3.3c-.09-.09-.17-.19-.26-.29a17.52,17.52,0,0,0-6.13-4.13A37,37,0,0,0,610.47,204c-3.53-.36-7.09-.56-10.57-1.27a1,1,0,0,0-.61,0,1,1,0,0,0-.5.78,4.38,4.38,0,0,0,1.78,4.31c-2.37.18-5.09-1.05-7.37-1.67a1.5,1.5,0,0,0-1.16,0,1.16,1.16,0,0,0-.46.66,4.3,4.3,0,0,0-.06,1.89,10.83,10.83,0,0,0,2,5.2,12.79,12.79,0,0,0,7.06,4.62A20.58,20.58,0,0,0,606.89,218.73Z"/><path class="cls-24" d="M609.63,249.83s7.35-1.54,9.91-3a8.63,8.63,0,0,0,3.55-3.65,12.28,12.28,0,0,1-2,4.31c-1.88,2.5-11.44,4.34-11.44,4.34Z"/><path class="cls-9" d="M611.4,230a1.47,1.47,0,1,0,2.94,0,1.52,1.52,0,0,0-1.47-1.58A1.53,1.53,0,0,0,611.4,230Z"/><path class="cls-9" d="M613.76,223.7l3.15,1.81a2,2,0,0,0-.73-2.61A1.72,1.72,0,0,0,613.76,223.7Z"/><path class="cls-24" d="M610.3,240.63l-3.36,1.31a1.75,1.75,0,0,0,2.28,1.16A2,2,0,0,0,610.3,240.63Z"/><path class="cls-9" d="M597.9,225.05l2.87-2.31a1.7,1.7,0,0,0-2.49-.4A2,2,0,0,0,597.9,225.05Z"/><path class="cls-9" d="M599.16,229.61a1.47,1.47,0,1,0,1.47-1.6A1.54,1.54,0,0,0,599.16,229.61Z"/><polygon class="cls-24" points="607.04 228.38 606.87 237.67 601.59 236.46 607.04 228.38"/><polyline class="cls-8" points="481.71 306.17 489.89 301.44 493.13 297.51 484.95 302.24 481.71 306.17"/><polyline class="cls-25" points="481.71 306.17 489.89 301.44 493.13 297.51 484.95 302.24 481.71 306.17"/><polyline class="cls-26" points="503.98 319.02 512.16 314.3 519 308.25 510.82 312.97 503.98 319.02"/><polyline class="cls-27" points="503.98 319.02 512.16 314.3 519 308.25 510.82 312.97 503.98 319.02"/><path class="cls-3" d="M573.56,335.35a17.49,17.49,0,0,1,3.38,8.91A17.52,17.52,0,0,1,573.56,335.35Zm19,.25c-2.76-18.75-12.83-37.3-24.84-44.23-5.76-3.33-11.09-3.45-15.36-.95l-7.71,4.44a3.07,3.07,0,0,0-.43.26,10.33,10.33,0,0,0-1,.63,14.21,14.21,0,0,0-1.78,1.46l-.25.24c-.24.25-.49.52-.71.78a12.93,12.93,0,0,0-.82,1,19.16,19.16,0,0,0-1.51,2.31c-.23.4-.45.83-.67,1.28L470.22,264,462,268.69v5.21l.7.4.64.38v1.1l-1.34.78v3l9.88,20.93,9.78,5.65,3.25-3.93,8.63,5.15,4.95,8.49L504,319l6.84-6,8.39,4.85L522,329.45l14.07,8.11a76.68,76.68,0,0,0,2.66,8.74c.09.3.2.59.32.92,4.67,12.28,12.11,22.8,20.49,27.65a22.1,22.1,0,0,0,3.16,1.52,15.82,15.82,0,0,0,1.76.59,12.64,12.64,0,0,0,1.57.35,13.43,13.43,0,0,0,5,0l.69-.16a5.43,5.43,0,0,0,.95-.28l.73-.28a7.27,7.27,0,0,0,.75-.35c.24-.11.47-.23.7-.36l.35-.2a1,1,0,0,0,.16-.1l7.72-4.44c6.22-3.6,10.25-12.72,10.25-25.62A68.13,68.13,0,0,0,592.59,335.6Z"/><path class="cls-20" d="M571.16,351.17c-3.23-1.87-5.85-7.41-5.85-12.38s2.62-7.49,5.85-5.62,5.85,7.4,5.85,12.37S574.39,353,571.16,351.17Zm13.25-10.86c-2.76-18.73-12.83-37.28-24.84-44.21-5.56-3.21-10.7-3.45-14.89-1.24a3.07,3.07,0,0,0-.43.26,10.33,10.33,0,0,0-1,.63,14.21,14.21,0,0,0-1.78,1.46l-.25.24c-.24.25-.49.52-.71.78a12.93,12.93,0,0,0-.82,1,19.16,19.16,0,0,0-1.51,2.31c-.23.4-.45.83-.67,1.28a32.4,32.4,0,0,0-2.59,7.95L462,268.69v5.21l.7.4.64.38v1.1l-1.34.78v3l9.88,20.93,9.78,5.65,3.25-3.93,8.63,5.15,4.95,8.49L504,319l6.84-6,8.39,4.85L522,329.45l14.07,8.11a76.68,76.68,0,0,0,2.66,8.74c.09.3.2.59.32.92,4.67,12.28,12.11,22.8,20.49,27.65a22.1,22.1,0,0,0,3.16,1.52,15.82,15.82,0,0,0,1.76.59,12.64,12.64,0,0,0,1.57.35,13.43,13.43,0,0,0,5,0l.69-.16a5.43,5.43,0,0,0,.95-.28l.73-.28a7.27,7.27,0,0,0,.75-.35c.24-.11.47-.23.7-.36l.35-.2a1,1,0,0,0,.16-.1c6-3.76,9.79-12.74,9.79-25.33A69.83,69.83,0,0,0,584.41,340.31Z"/><path class="cls-28" d="M577,345.54c0,5-2.62,7.49-5.85,5.62s-5.85-7.4-5.85-12.37,2.62-7.49,5.85-5.62a8.15,8.15,0,0,1,2.39,2.19,17.58,17.58,0,0,0,3.39,8.9A11.1,11.1,0,0,1,577,345.54Z"/><path class="cls-29" d="M593.34,345.52c0,12.9-4,22-10.25,25.62l-7.72,4.44c6-3.76,9.79-12.74,9.79-25.33a69.83,69.83,0,0,0-.75-9.94c-2.76-18.73-12.83-37.28-24.84-44.21-5.56-3.21-10.7-3.45-14.89-1.24l7.71-4.44c4.27-2.5,9.6-2.38,15.36.95,12,6.93,22.08,25.48,24.84,44.23A68.13,68.13,0,0,1,593.34,345.52Z"/><path class="cls-30" d="M585.16,350.25c0,12.59-3.83,21.57-9.79,25.33l7.72-4.44c6.22-3.6,10.25-12.72,10.25-25.62,0-.47,0-.95,0-1.43l-8.18,4.72C585.14,349.29,585.16,349.77,585.16,350.25Z"/><g class="cls-31"><path class="cls-30" d="M585.16,350.25c0,12.59-3.83,21.57-9.79,25.33l7.72-4.44c6.22-3.6,10.25-12.72,10.25-25.62,0-.47,0-.95,0-1.43l-8.18,4.72C585.14,349.29,585.16,349.77,585.16,350.25Z"/></g><polygon class="cls-32" points="535.22 316.15 535.22 318.81 462.04 276.56 463.38 275.78 463.38 274.68 535.22 316.15"/><polygon class="cls-32" points="535.22 317.25 535.22 318.81 462.04 276.56 463.38 275.78 463.38 275.76 535.22 317.25"/><ellipse class="cls-33" cx="559.57" cy="335.48" rx="19.32" ry="36.16" transform="translate(-73.81 178.97) rotate(-17.06)"/><path class="cls-29" d="M537.52,302.83a32.4,32.4,0,0,0-2.59,7.95L462,268.69l8.18-4.72Z"/><path class="cls-22" d="M632.2,306.92c3.82-7.23,8.18-23.45,10.35-31.64,3.08-11.63-1.91-18.95-7.57-19.25-3.55.54-15.21,43-15.21,43-1.29,1-19,10-24.74,12.29a4.47,4.47,0,0,1-3.16,0c-2.73-1-4.6-.81-7.28-1.08-2.1-.21-3.16-1-3.42-.51a2.39,2.39,0,0,0,1,3.09,16.34,16.34,0,0,0,3.65,1.6,22.27,22.27,0,0,1-7.07,1c-5.48-.12-7.46,2.26-3.2,7.82,2.66,3.48,6.94,4.57,16.59,1.24,2.78-1,6.54-2.83,10.05-4.1,7.24-2.64,9.1-2.92,14.66-4.79C624.91,312.82,630.5,310.13,632.2,306.92Z"/><path class="cls-17" d="M633.13,297.43c-2.82,0-7.09-.94-11.55-5.39l5.59-21.64c.27-3.92,1.8-14,5.68-15,3.62.5,6.38,1.33,8.08,3.69s3.5,6,1.53,16.54a159.73,159.73,0,0,1-5.83,21.23A11.13,11.13,0,0,1,633.13,297.43Z"/><path class="cls-23" d="M632.88,256c3.45.48,6.07,1.28,7.64,3.47,1.71,2.37,3.38,5.78,1.45,16.16a160.43,160.43,0,0,1-5.73,20.92,10.78,10.78,0,0,1-3.11.43c-2.68,0-6.73-.89-11-5l5.52-21.37,0-.09v-.09c.35-5.13,2.07-13.47,5.2-14.39m0-1c-5.18,1.1-6.15,15.34-6.15,15.34L621,292.19c4.61,4.7,9.07,5.74,12.11,5.74a10.87,10.87,0,0,0,3.9-.64A162,162,0,0,0,643,275.76c1.94-10.43.33-14.23-1.61-16.92s-5.18-3.45-8.51-3.91Z"/></svg>