<svg id="Capa_1" data-name="Capa 1" xmlns="http://www.w3.org/2000/svg" viewBox="0 0 1200 800"><defs><style>.cls-1{fill:#eae9e8;opacity:0.89;}.cls-2{fill:#f46f44;}.cls-3{fill:#edbe85;}.cls-4{fill:#faad18;}.cls-5{fill:#bcbcbc;}.cls-6{fill:#19334b;}.cls-7{fill:#a0a0a0;}.cls-8{fill:#34495e;}.cls-9{fill:#c4c4c4;}.cls-10{fill:#dda936;}.cls-11{fill:#d8d8d8;}.cls-12{fill:#3a3a3a;}.cls-13,.cls-14{fill:#221f1f;}.cls-14{opacity:0.2;}.cls-15{fill:#898989;}.cls-16{fill:#ffd15f;}.cls-17{fill:#dcb99d;}.cls-18{fill:#eed3b7;}.cls-19{fill:#72583b;}.cls-20{fill:#f4f4f4;}.cls-21{fill:#3c444f;}.cls-22{fill:#d1ad93;}.cls-23{fill:#dbdcdd;}.cls-24{fill:#303030;}.cls-25{fill:#252926;}.cls-26{fill:#87cdcd;}.cls-27{fill:#1ca69f;}.cls-28{fill:#f4bb2d;}.cls-29{fill:#2f4358;}.cls-30{fill:#ddd;}.cls-31{fill:#b3b2b3;}.cls-32{fill:#313d4d;}.cls-33{fill:#f59326;}.cls-34{fill:#cccbcb;}.cls-35{fill:#5b6375;}.cls-36{fill:#73bcc4;}.cls-37{fill:#5e9ba3;}.cls-38{fill:#74c4e5;}.cls-39{fill:#2f363e;opacity:0.8;}.cls-40{fill:#f3715b;}.cls-41{fill:#fff;}.cls-42{fill:#ffd9b0;}.cls-43{fill:#e9f4f2;}</style></defs><title>servicios</title><path class="cls-1" d="M1080,401.19C1080,287.87,938.66,196,764.3,196S448.59,287.87,448.59,401.19c0,2.81.12,5.59.29,8.37-36.43-14.59-78.41-22.92-123.11-22.92C186.17,386.64,73,467.76,73,567.82S186.17,749,325.77,749c49.36,0,95.41-10.15,134.33-27.69C517.42,738.75,587.33,749,662.79,749,857.33,749,1015,680.91,1015,596.93c0-19-8-37.09-22.72-53.82C1046.62,506.25,1080,456.26,1080,401.19Z"/><rect class="cls-2" x="536.08" y="480.44" width="241.72" height="4.28" transform="translate(-83.02 824.52) rotate(-61.1)"/><rect class="cls-2" x="517.51" y="404.91" width="4.28" height="217.15" transform="translate(-210.56 535.75) rotate(-46.4)"/><rect class="cls-2" x="464.46" y="586.45" width="123.62" height="4.29"/><rect class="cls-2" x="420.93" y="444.79" width="300.22" height="4.29" transform="translate(899.42 -199.59) rotate(78.88)"/><rect class="cls-2" x="610.31" y="586.45" width="123.62" height="4.29"/><path class="cls-2" d="M463.77,403.11a64.37,64.37,0,1,1-64.37-64.37A64,64,0,0,1,463.77,403.11Z"/><path class="cls-3" d="M447.66,433.05s-3.13-8.18-4.07-9.71c0,0,4.75-5.88,3.48-16.93,0,0,4.25-9.44,5.07-18.17,0,0,.86-4.65-1.94-6.56,0,0-2.37-.87-2.5,2.95a38.71,38.71,0,0,1-.87,8.81s-.77,4.47-2.75,5.69c0,0-1.51,1.49-.67-4.66,0,0,1.53-8.43.62-14.06a21.17,21.17,0,0,0-3.68-9s-2.07-2.05-4.44-.75c0,0-1.84.08,1.34,8.49a37,37,0,0,1,1.89,11.07s-.18,4.25-1.83,6.09c0,0-1.31,1.48-1.62-2.63,0,0-.58-7.15-1.2-9.66a30.25,30.25,0,0,0-4.89-9.86s-4.56-6-7.87-3.92c0,0-1.82,1.88,1.22,4.89a22.83,22.83,0,0,1,5.25,6.72,65.13,65.13,0,0,1,2.1,7.35c0,.29.1.59.17.88.29,1.18,1.12,3.58.43,5.59,0,0-.64,1.83-2.47-.36a8.73,8.73,0,0,0-4.61-2.93,24.87,24.87,0,0,0-3-.55c-5.15-.64-9.47,3.36-9.47,3.36s-5.72,4.84-3.22,5.81c0,0,1.27,1.55,4.19.53,0,0,4.26-3.48,6.41-3.59,0,0,4.45-.73,5.63,5.52s.78,6.77-.71,10.11a8.33,8.33,0,0,1-6.73,5,7.1,7.1,0,0,1-7.18-3.32s-1-4.21-2.95-4.53-3.65-.16-4.39,3.24a20.09,20.09,0,0,0,5,10.41c3.83,3.86,10.46,3.93,15.12,4.39a24.24,24.24,0,0,0,3.07.11c.88,0,2.07-.06,3.46-.07l1.48,9.36Z"/><polygon class="cls-4" points="353.77 400.09 355.11 404.2 359.43 404.2 355.93 406.71 357.27 410.81 353.77 408.27 350.28 410.8 351.62 406.71 348.12 404.2 352.44 404.2 353.77 400.09"/><polygon class="cls-4" points="366.87 400.09 368.21 404.2 372.52 404.2 369.03 406.71 370.37 410.81 366.87 408.27 363.38 410.8 364.71 406.71 361.22 404.2 365.54 404.2 366.87 400.09"/><polygon class="cls-4" points="379.97 400.09 381.31 404.2 385.62 404.2 382.13 406.71 383.46 410.81 379.97 408.27 376.48 410.8 377.81 406.71 374.32 404.2 378.64 404.2 379.97 400.09"/><polygon class="cls-4" points="393.07 400.09 394.4 404.2 398.72 404.2 395.23 406.71 396.56 410.81 393.07 408.27 389.57 410.8 390.91 406.71 387.42 404.2 391.73 404.2 393.07 400.09"/><polygon class="cls-5" points="406.17 400.12 407.5 404.22 411.82 404.22 408.32 406.73 409.66 410.81 406.17 408.27 402.67 410.8 404.01 406.73 400.51 404.22 404.83 404.22 406.17 400.12"/><path class="cls-6" d="M451.75,440.58a64.69,64.69,0,0,1-17.64,16.75l-6-22a2.15,2.15,0,0,1,1.5-2.63l16.54-4.51a2.15,2.15,0,0,1,2.62,1.51Z"/><rect class="cls-7" x="427.02" y="429.58" width="23.91" height="10.6" rx="2.27" transform="translate(-102.11 136.47) rotate(-15.86)"/><path class="cls-8" d="M431.11,442.62a2.22,2.22,0,0,1-1,.05l4,14.66a64.77,64.77,0,0,0,9-7L440.19,440Z"/><path class="cls-9" d="M437.52,430.56l-.2-.72-9.11,2.58a2.29,2.29,0,0,0-1.57,2.81l1.66,5.83a2.26,2.26,0,0,0,1.82,1.61,2.22,2.22,0,0,0,1-.05l9.08-2.58Z"/><circle class="cls-2" cx="426.56" cy="583.56" r="61.15"/><path class="cls-10" d="M458.06,608.92c0,5.44-3.92,9.85-8.76,9.85H403.79c-4.83,0-8.75-4.41-8.75-9.85v-32c0-4.58,22.16-16.84,29.16-20.61a4.34,4.34,0,0,1,4.08-.07c7,3.67,29.78,16.07,29.78,20.68Z"/><path class="cls-11" d="M448.07,546.32H405.9c-2,0-3.71,1.35-3.71,3.07V607c0,1.71,1.66,3.08,3.68,3.08h42.2a3.48,3.48,0,0,0,3.64-2.77c0-.11,0-.2,0-.31V549.39C451.73,547.67,450.09,546.32,448.07,546.32Z"/><rect class="cls-12" x="409.68" y="553.29" width="35.59" height="1.14"/><rect class="cls-12" x="409.68" y="556.1" width="24.77" height="1.14"/><rect class="cls-12" x="409.68" y="559.02" width="24.77" height="1.14"/><rect class="cls-12" x="409.68" y="562.05" width="33.72" height="1.14"/><rect class="cls-12" x="409.68" y="564.96" width="21.82" height="1.14"/><rect class="cls-12" x="409.68" y="567.67" width="28.69" height="1.14"/><rect class="cls-12" x="409.68" y="570.26" width="32.62" height="1.14"/><rect class="cls-12" x="409.68" y="572.83" width="25.5" height="1.14"/><rect class="cls-12" x="409.68" y="575.43" width="31.33" height="1.14"/><rect class="cls-12" x="409.68" y="578.09" width="33.72" height="1.14"/><rect class="cls-12" x="409.68" y="581" width="21.82" height="1.14"/><rect class="cls-12" x="409.68" y="583.71" width="28.69" height="1.14"/><rect class="cls-12" x="409.68" y="586.3" width="32.62" height="1.14"/><rect class="cls-12" x="409.68" y="588.87" width="25.5" height="1.14"/><rect class="cls-12" x="409.68" y="591.47" width="31.33" height="1.14"/><rect class="cls-12" x="409.68" y="594.04" width="31.33" height="1.14"/><rect class="cls-13" x="409.68" y="596.98" width="31.33" height="1.14"/><path class="cls-14" d="M439.4,547l1.43,12.22a1.48,1.48,0,0,0,1.47,1.7c1.69.1,9.44-1.9,9.44-1.9Z"/><path class="cls-15" d="M439.4,546.34v11a1.48,1.48,0,0,0,1.48,1.7c1.68.1,10.86,0,10.86,0Z"/><path class="cls-16" d="M458.06,577.31v32.12a11,11,0,0,1-2,6,9.46,9.46,0,0,1-6.23,3.57l-23.24-23Z"/><path class="cls-16" d="M426.55,595.94l-23.24,23a9.48,9.48,0,0,1-6.24-3.57,11,11,0,0,1-2-6V577.31Z"/><path class="cls-10" d="M456,615.38a9.46,9.46,0,0,1-6.23,3.57H403.31a9.48,9.48,0,0,1-6.24-3.57l29.48-19.44Z"/><circle class="cls-2" cx="746.84" cy="334.53" r="89.52"/><path class="cls-17" d="M769.62,335.65l-10.18-3.75c-7.62-2.51-6-6.9-6-6.9h-15.8s1.64,4.39-6,6.9l-10.18,3.76,24.06-.26Z"/><path class="cls-17" d="M725.05,293.05c.1,3.13-.54,5.86-2.15,5.92s-2.79-2.45-2.9-5.58,1.14-5.71,2.75-5.76S724.94,289.93,725.05,293.05Z"/><path class="cls-18" d="M766.12,292.43c-.11,3.12.53,5.85,2.15,5.91s2.78-2.45,2.89-5.57-1.13-5.71-2.75-5.77S766.23,289.3,766.12,292.43Z"/><path class="cls-18" d="M767.4,294.72c0,17.78-9.84,32.2-22,32.2s-22-14.42-22-32.2,9.83-32.93,22-32.93S767.4,277,767.4,294.72Z"/><path class="cls-17" d="M745.63,261.79v65.13c-12.19,0-22.16-14.07-22.16-31.77C723.47,277.07,732.71,262.11,745.63,261.79Z"/><path class="cls-19" d="M721.31,289.5c-.38-4.44-.74-11.2,1.63-18,1.5-4.29,3.53-10.19,7.72-11.94,5.19-2.17,1.58,1.36,12.41-.77,4.63-.92,8.93-3.24,16.43-1.11,0,0,7.36,3,9.54,19.71a.22.22,0,0,1,0,.08,52.29,52.29,0,0,1,.63,11.62c-.06,1.08-1.11,6.29-2,6.93-1.35,1-1.37-.19-1.49-.25-.45-.2.59-6.34.52-6.83-.39-2.8-2.37-11.66-7-13.87,0,0-2.86-1-7.57,1.33-9.09,4.42-13.35.54-14.54.2-.07,0-1.45-.83-1.53-.87-.89-.43-6.1-2.58-8.7,2.23l-.09.15c-.35.48-2.66,3.81-3.51,11.39-.05.45,1,5.91.89,6.46,0,0-1.34.66-1.55-.2A28.88,28.88,0,0,1,721.31,289.5Z"/><rect class="cls-20" x="721.5" y="335.66" width="50.26" height="38.34"/><path class="cls-21" d="M748.56,340.22c-.13.26-.7.45-1.27.45h-3.84c-.58,0-1.15-.19-1.28-.45L740,336c-.43-.83.15-1.6,1.36-1.6h8c1.21,0,1.8.77,1.37,1.6Z"/><path class="cls-22" d="M745.5,327.17l-11.66,9.62-10.48-4,15-2.83-1.15-2.38s.9-.61.54-2.36A17.61,17.61,0,0,0,745.5,327.17Z"/><path class="cls-23" d="M737.77,326.58c.09,0,7.75,7.77,7.75,7.77l-11.65,6.7-2.67-9.9Z"/><path class="cls-23" d="M753.35,326.58c-.09,0-7.88,7.77-7.88,7.77l11.77,6.7,2.43-9.91Z"/><rect class="cls-24" x="766.04" y="296.95" width="1.93" height="20.92" transform="translate(364.3 -414.14) rotate(38.99)"/><rect class="cls-24" x="747.07" y="313.99" width="14.4" height="1.81"/><path class="cls-24" d="M773.16,289h-2c0-18.56-9.1-27.84-25.3-27.84s-22.4,16-22.4,34.52h-.34c0-19.66,5.45-36.51,22.74-36.51S773.16,269.37,773.16,289Z"/><rect class="cls-24" x="769.25" y="285.2" width="7.11" height="15.77" rx="1.99"/><circle class="cls-24" cx="745.4" cy="314.89" r="2.99"/><polygon class="cls-25" points="745.83 398.34 745.79 397.57 745.6 396.95 744.9 398.34 745.83 398.34"/><polygon class="cls-21" points="744.56 399.61 745.49 399.61 745.49 399.64 752.59 399.64 752.43 397.2 752.39 396.62 752.38 396.46 751.99 390.76 750.85 374 750.85 374 750.84 373.82 749.51 354.2 748.57 340.13 742.15 340.13 741.2 354.2 739.97 372.5 739.96 372.62 739.95 372.7 739 386.65 738.33 396.62 738.28 397.2 738.12 399.64 744.55 399.64 744.56 399.61"/><path class="cls-21" d="M786.33,341.52h0l0-.13a4.77,4.77,0,0,0-.3-1.07c-1.64-1.84-17.42-8.73-26.48-9.12h0l-4.32,22.27-3.51,18.12-2.5,12.89h0l-2.9,10.77-.31,1.57-.72,1.43-.3-1-.32-.62L740,372.87l-.07-.37-3.55-18.3-5.07-23.12-.21,0a23.56,23.56,0,0,0-4.6.85l-.11,0-1.28.32h0c-8.57,2.27-18.42,7.11-19.69,8.54h0l-.32.75-15.26,58.05H708.1l.28-.86L715.93,378l3.55-9h0c.32,2.58.57,5.78.75,9.29.26,5.14.38,10.94.42,16.44,0,1.68,0,3.33,0,4.93l24.41,0v0h26c0-1.77,0-3.61,0-5.5h0c0-5.48.14-11.31.39-16.51.17-3.56.41-6.82.73-9.48l3.51,8.94,7.55,20.76.53,1.79h18.29Z"/><path class="cls-26" d="M745.5,398.24l-9-44.16-5-23.13a19.31,19.31,0,0,0-6.28,1.32l-1.34,17.28,4.71,1.62-6.46,2.73Z"/><path class="cls-26" d="M745.26,398.24,755,354.08l4.48-23a36.23,36.23,0,0,1,6.73,1.21l1.33,17.3-4.67,1.62,6.4,2.73Z"/><circle class="cls-2" cx="543.53" cy="281.86" r="66.86"/><path class="cls-27" d="M563.13,276.35h15a13.6,13.6,0,0,1,13.57,13.56v.9a13.64,13.64,0,0,1-13.57,13.61h-4.85l3,8-11.58-8h-1.59a13.64,13.64,0,0,1-13.57-13.61v-.9A13.59,13.59,0,0,1,563.13,276.35Z"/><path class="cls-28" d="M545.43,288.9a15.4,15.4,0,0,1,1.24-6.1,15.73,15.73,0,0,1,14-9.57v-.82a21.1,21.1,0,0,0-21.07-21H516.33a21.11,21.11,0,0,0-21.08,21v1.41a21.14,21.14,0,0,0,21.08,21.09h7.52l-4.72,12.48,18-12.48h2.47a20.84,20.84,0,0,0,6.39-1,15.64,15.64,0,0,1-.54-4.1Z"/><circle class="cls-29" cx="511.55" cy="272.28" r="4.18" transform="translate(129.02 707.59) rotate(-76.72)"/><circle class="cls-29" cx="526.28" cy="272.28" r="4.18"/><circle class="cls-29" cx="541.01" cy="272.28" r="4.18" transform="translate(151.72 736.26) rotate(-76.72)"/><circle class="cls-2" cx="772.74" cy="579.73" r="60.68"/><path class="cls-30" d="M738.8,539.81H789s5.64,1.3,5,6.69L794,617H755.45s1.06,5.89-5.38,6.22c0,0-4.72.41-5.82-5.4l-.23-72S744.43,541.37,738.8,539.81Z"/><path class="cls-31" d="M750.19,623.26l47.31-.06s4.94-1.33,4.13-6.17H755S756,622.86,750.19,623.26Z"/><rect class="cls-32" x="748.84" y="550.35" width="40.42" height="1.6"/><rect class="cls-32" x="748.84" y="552.48" width="40.42" height="1.6"/><rect class="cls-32" x="748.84" y="554.61" width="40.42" height="1.6"/><rect class="cls-32" x="748.84" y="556.74" width="40.42" height="1.6"/><rect class="cls-33" x="748.84" y="561.85" width="6.01" height="3.64"/><rect class="cls-33" x="748.84" y="566.96" width="6.01" height="2.84"/><rect class="cls-33" x="756.28" y="561.85" width="6.01" height="3.64"/><rect class="cls-33" x="756.28" y="566.96" width="6.01" height="2.84"/><path class="cls-31" d="M744,545.58H732.74a5.55,5.55,0,0,1,5.64-5.65A6,6,0,0,1,744,545.58Z"/><path class="cls-34" d="M787.48,571.79H749.13V613.6h40.41V571.79ZM787,573v38.38H751V573Z"/><path class="cls-35" d="M769.85,561a4.48,4.48,0,1,0,.1,9,4.72,4.72,0,0,0,2-.46l-2.23-4Z"/><path class="cls-36" d="M770.54,560.31l-.15,4.84,4.66,1.34a4.86,4.86,0,0,0-4.51-6.18Z"/><polyline class="cls-37" points="773.66 570.31 770.2 565.49 775.84 567.43"/><path class="cls-37" d="M775.84,567.43l-5.64-1.94,3.46,4.82A6.06,6.06,0,0,0,775.84,567.43Z"/><rect class="cls-31" x="778.74" y="561.85" width="10.52" height="0.8"/><rect class="cls-31" x="778.74" y="563.27" width="10.52" height="0.8"/><rect class="cls-31" x="778.74" y="564.69" width="10.52" height="0.8"/><rect class="cls-31" x="778.74" y="566.11" width="10.52" height="0.8"/><rect class="cls-31" x="778.74" y="567.53" width="10.52" height="0.8"/><rect class="cls-31" x="778.74" y="568.95" width="10.52" height="0.8"/><rect class="cls-31" x="752.74" y="585.55" width="33.12" height="0.8"/><rect class="cls-31" x="752.74" y="586.97" width="33.12" height="0.8"/><rect class="cls-31" x="752.74" y="588.39" width="33.12" height="0.8"/><rect class="cls-31" x="752.74" y="589.81" width="33.12" height="0.8"/><rect class="cls-31" x="752.74" y="591.23" width="33.12" height="0.8"/><rect class="cls-31" x="752.74" y="592.65" width="33.12" height="0.8"/><rect class="cls-31" x="768.21" y="601.49" width="17.66" height="0.8"/><rect class="cls-31" x="768.21" y="604.33" width="17.66" height="0.8"/><rect class="cls-31" x="768.21" y="607.03" width="17.66" height="0.8"/><rect class="cls-31" x="768.21" y="609.87" width="17.66" height="0.8"/><rect class="cls-38" x="751.85" y="575.45" width="34.19" height="0.88"/><rect class="cls-38" x="751.85" y="577.49" width="34.19" height="0.88"/><rect class="cls-38" x="751.85" y="579.54" width="34.19" height="0.88"/><rect class="cls-38" x="751.85" y="581.58" width="34.19" height="0.88"/><rect class="cls-38" x="751.85" y="583.63" width="34.19" height="0.88"/><rect class="cls-39" x="751.85" y="605.32" width="1.81" height="5.08"/><rect class="cls-39" x="754.47" y="603.66" width="1.81" height="6.73"/><rect class="cls-39" x="762.35" y="603.66" width="1.81" height="6.73"/><rect class="cls-39" x="757.1" y="597.21" width="1.81" height="13.18"/><rect class="cls-39" x="759.73" y="599.89" width="1.81" height="10.5"/><rect class="cls-39" x="764.98" y="595.34" width="1.81" height="15.05"/><path class="cls-40" d="M799.89,582.81v27c0,2.09-.83,3.78-1.84,3.78s-1.85-1.69-1.85-3.78v-27Z"/><path class="cls-40" d="M796.2,589.82V576.64a1.85,1.85,0,1,1,3.69,0v13.18Z"/><path class="cls-32" d="M796.2,576.64v1.29h3.69v-1.29a1.85,1.85,0,0,0-1.84-1.85,1.84,1.84,0,0,0-1.85,1.85Z"/><rect class="cls-32" x="796.2" y="588.66" width="3.68" height="1.36"/><circle class="cls-41" cx="598.25" cy="589.26" r="16.32"/><path class="cls-3" d="M602.67,734.67v-5.41s-8.15-.78-13.49-10.67l-24.69-53.51s-1.46-3-1.36-4.74c0,0-.2-5.84,5-8.41,0,0,5.16-1.74,8.57,2.22,0,0,2.58,1.93,4.93,7.39l5.54,10.63,2.62,4.43,0-43.65.15-41.39s1.39-7,5.75-8.5c0,0,5-1.85,7.86,1.27a9.79,9.79,0,0,1,3.89,7.7v26.26l-.38,49.8s.29-18.22,1.39-21.08c0,0,2.93-7.38,8.88-6.68a9.19,9.19,0,0,1,8.61,5.9s2.35,2.89,1.17,12.35l.1,9.69s-.19-16.14.64-17.47,2-5.73,8.37-6a9.05,9.05,0,0,1,7.73,5.84s.83.29.83,5.44l.25,10.64s-.34-10.7.34-11.57c0,0,2.2-5.49,6.12-5.49a6.18,6.18,0,0,1,7,2.72s2.49,1.62,2.25,8.21l-1.15,31s-1.77,26.2-12.36,37.36l-.07,5.65Z"/><path class="cls-42" d="M569.88,655.58s-3.69-1.69-4.93,1.9c0,0-1.29,1.82.26,4.64l4.89,10.22a4,4,0,0,0,3.69-.34s2.66-1.77,2.57-4.47c0,0,.47-1.69-1.59-5.24C574.77,662.29,571.38,656.34,569.88,655.58Z"/><ellipse class="cls-42" cx="598.58" cy="592.14" rx="6.75" ry="7.14"/><polygon class="cls-8" points="599.46 799.87 649.78 799.87 649.91 756.24 626.51 756.22 599.6 756.2 599.51 756.2 599.46 799.87"/><polygon class="cls-6" points="599.48 799.87 626.39 799.87 626.51 756.23 599.6 756.22 599.48 799.87"/><rect class="cls-43" x="596.48" y="732.46" width="56.47" height="25.04" rx="12.52" transform="matrix(1, 0, 0, 1, 0.79, -0.66)"/></svg>